<svg width="18" height="18" viewBox="0 0 18 18" fill="none" xmlns="http://www.w3.org/2000/svg">
<path fill-rule="evenodd" clip-rule="evenodd" d="M8.48138 16.6961L8.48475 16.6995L8.487 16.7017C8.63463 16.8136 8.81477 16.8742 9 16.8742C9.18523 16.8742 9.36537 16.8136 9.513 16.7017L9.51525 16.6995L9.51863 16.6961L9.53212 16.686C9.60453 16.6301 9.6758 16.5727 9.74588 16.5139C10.5846 15.8068 11.3553 15.0226 12.0476 14.1716C13.2862 12.6394 14.625 10.4119 14.625 7.875C14.625 6.38316 14.0324 4.95242 12.9775 3.89752C11.9226 2.84263 10.4918 2.25 9 2.25C7.50816 2.25 6.07742 2.84263 5.02252 3.89752C3.96763 4.95242 3.375 6.38316 3.375 7.875C3.375 10.4119 4.71375 12.6394 5.9535 14.1716C6.64586 15.0226 7.41648 15.8068 8.25525 16.5139L8.46787 16.686L8.48138 16.6961ZM9 9.5625C9.22161 9.5625 9.44104 9.51885 9.64578 9.43405C9.85052 9.34924 10.0365 9.22494 10.1932 9.06824C10.3499 8.91154 10.4742 8.72552 10.559 8.52078C10.6439 8.31604 10.6875 8.09661 10.6875 7.875C10.6875 7.65339 10.6439 7.43396 10.559 7.22922C10.4742 7.02448 10.3499 6.83846 10.1932 6.68176C10.0365 6.52506 9.85052 6.40076 9.64578 6.31595C9.44104 6.23115 9.22161 6.1875 9 6.1875C8.55245 6.1875 8.12322 6.36529 7.80676 6.68176C7.49029 6.99822 7.3125 7.42745 7.3125 7.875C7.3125 8.32255 7.49029 8.75178 7.80676 9.06824C8.12322 9.38471 8.55245 9.5625 9 9.5625Z" fill="#E8601C"/>
</svg>
