<svg width="497" height="114" viewBox="0 0 497 114" fill="none" xmlns="http://www.w3.org/2000/svg">
<path d="M492.102 62.1914C493.02 62.1914 493.841 62.4154 494.566 62.8634C495.292 63.2901 495.878 63.8767 496.326 64.6234C496.774 65.3487 496.998 66.1594 496.998 67.0554C496.998 67.9514 496.774 68.7727 496.326 69.5194C495.878 70.2447 495.292 70.8314 494.566 71.2794C493.841 71.7274 493.02 71.9514 492.102 71.9514C491.206 71.9514 490.385 71.7274 489.638 71.2794C488.913 70.8314 488.326 70.2447 487.878 69.5194C487.452 68.7727 487.238 67.9514 487.238 67.0554C487.238 66.1594 487.452 65.3487 487.878 64.6234C488.326 63.8767 488.924 63.2901 489.67 62.8634C490.417 62.4154 491.228 62.1914 492.102 62.1914ZM492.102 70.3194C493.02 70.3194 493.788 70.0101 494.406 69.3914C495.046 68.7514 495.366 67.9727 495.366 67.0554C495.366 66.4794 495.217 65.9461 494.918 65.4554C494.641 64.9647 494.257 64.5701 493.766 64.2714C493.276 63.9727 492.721 63.8234 492.102 63.8234C491.526 63.8234 490.993 63.9727 490.502 64.2714C490.012 64.5701 489.617 64.9647 489.318 65.4554C489.02 65.9461 488.87 66.4794 488.87 67.0554C488.87 67.6527 489.02 68.2074 489.318 68.7194C489.617 69.2101 490.012 69.6047 490.502 69.9034C490.993 70.1807 491.526 70.3194 492.102 70.3194Z" fill="#575757"/>
<path d="M458.309 46.4151C458.672 46.4578 459.056 46.4898 459.461 46.5111C459.888 46.5324 460.261 46.5431 460.581 46.5431C460.901 46.5431 461.424 46.5324 462.149 46.5111C462.896 46.4898 463.728 46.4684 464.645 46.4471C465.584 46.4044 466.512 46.3724 467.429 46.3511C468.368 46.3084 469.2 46.2658 469.925 46.2231C470.672 46.1804 471.216 46.1484 471.557 46.1271C472.027 46.0844 472.389 46.0418 472.645 45.9991C472.901 45.9564 473.115 45.9138 473.285 45.8711L474.757 47.7271C474.48 47.9191 474.181 48.1218 473.861 48.3351C473.563 48.5484 473.264 48.7831 472.965 49.0391C472.56 49.3378 472.016 49.7751 471.333 50.3511C470.651 50.9058 469.893 51.5351 469.061 52.2391C468.251 52.9218 467.451 53.5938 466.661 54.2551C465.872 54.9164 465.157 55.5138 464.517 56.0471C465.264 55.7911 466.011 55.6204 466.757 55.5351C467.525 55.4284 468.261 55.3751 468.965 55.3751C470.736 55.3751 472.304 55.7058 473.669 56.3671C475.056 57.0071 476.133 57.8924 476.901 59.0231C477.691 60.1538 478.085 61.4444 478.085 62.8951C478.085 64.6018 477.637 66.0951 476.741 67.3751C475.845 68.6551 474.576 69.6364 472.933 70.3191C471.291 71.0231 469.339 71.3751 467.077 71.3751C465.627 71.3751 464.379 71.1831 463.333 70.7991C462.288 70.4151 461.477 69.8818 460.901 69.1991C460.347 68.5164 460.069 67.7271 460.069 66.8311C460.069 66.1058 460.272 65.4231 460.677 64.7831C461.083 64.1431 461.659 63.6311 462.405 63.2471C463.152 62.8631 464.016 62.6711 464.997 62.6711C466.427 62.6711 467.611 62.9698 468.549 63.5671C469.488 64.1431 470.213 64.9111 470.725 65.8711C471.237 66.8098 471.525 67.8231 471.589 68.9111L469.285 69.2951C469.2 67.9298 468.773 66.8098 468.005 65.9351C467.259 65.0391 466.245 64.5911 464.965 64.5911C464.24 64.5911 463.632 64.7938 463.141 65.1991C462.651 65.6044 462.405 66.0844 462.405 66.6391C462.405 67.4071 462.8 68.0151 463.589 68.4631C464.379 68.9111 465.403 69.1351 466.661 69.1351C468.475 69.1351 470.043 68.8898 471.365 68.3991C472.709 67.9084 473.733 67.1938 474.437 66.2551C475.163 65.3164 475.525 64.1858 475.525 62.8631C475.525 61.8178 475.216 60.8791 474.597 60.0471C473.979 59.2151 473.125 58.5644 472.037 58.0951C470.971 57.6044 469.744 57.3591 468.357 57.3591C467.013 57.3591 465.808 57.5084 464.741 57.8071C463.675 58.0844 462.672 58.4898 461.733 59.0231C460.816 59.5564 459.899 60.2284 458.981 61.0391C458.085 61.8284 457.125 62.7351 456.101 63.7591L454.277 61.8711C454.939 61.3378 455.664 60.7404 456.453 60.0791C457.264 59.3964 458.075 58.7244 458.885 58.0631C459.696 57.3804 460.443 56.7511 461.125 56.1751C461.829 55.5778 462.416 55.0871 462.885 54.7031C463.333 54.3404 463.888 53.8818 464.549 53.3271C465.232 52.7511 465.936 52.1538 466.661 51.5351C467.387 50.9164 468.069 50.3298 468.709 49.7751C469.371 49.2204 469.904 48.7724 470.309 48.4311C469.968 48.4311 469.467 48.4524 468.805 48.4951C468.144 48.5164 467.408 48.5484 466.597 48.5911C465.787 48.6124 464.976 48.6444 464.165 48.6871C463.376 48.7298 462.651 48.7724 461.989 48.8151C461.349 48.8364 460.859 48.8578 460.517 48.8791C460.176 48.9004 459.824 48.9218 459.461 48.9431C459.099 48.9644 458.747 49.0071 458.405 49.0711L458.309 46.4151Z" fill="#575757"/>
<path d="M434.82 47.9216C435.097 48.2843 435.428 48.775 435.812 49.3936C436.196 50.0123 436.569 50.6416 436.932 51.2816C437.316 51.9216 437.636 52.4976 437.892 53.0096L436.004 53.8736C435.727 53.2976 435.418 52.711 435.076 52.1136C434.756 51.495 434.415 50.8976 434.052 50.3216C433.711 49.7243 433.359 49.1803 432.996 48.6896L434.82 47.9216ZM438.948 46.2896C439.247 46.6523 439.588 47.1323 439.972 47.7296C440.378 48.327 440.772 48.9456 441.156 49.5856C441.54 50.2256 441.86 50.791 442.116 51.2816L440.26 52.1776C439.983 51.623 439.673 51.047 439.332 50.4496C438.991 49.8523 438.628 49.2656 438.244 48.6896C437.882 48.1136 437.519 47.591 437.156 47.1216L438.948 46.2896ZM425.956 45.2976C425.892 45.831 425.828 46.3643 425.764 46.8976C425.721 47.431 425.689 47.975 425.668 48.5296C425.647 49.4256 425.604 50.535 425.54 51.8576C425.497 53.1803 425.455 54.5883 425.412 56.0816C425.391 57.5536 425.359 59.0256 425.316 60.4976C425.295 61.9696 425.284 63.2923 425.284 64.4656C425.284 65.639 425.508 66.5776 425.956 67.2816C426.404 67.9643 427.023 68.4656 427.812 68.7856C428.601 69.0843 429.508 69.2336 430.532 69.2336C431.983 69.2336 433.295 69.0523 434.468 68.6896C435.642 68.3056 436.687 67.8043 437.604 67.1856C438.521 66.5456 439.332 65.831 440.036 65.0416C440.761 64.2523 441.412 63.4416 441.988 62.6096L443.812 64.7856C443.257 65.5323 442.575 66.3216 441.764 67.1536C440.975 67.9856 440.036 68.7536 438.948 69.4576C437.86 70.1616 436.612 70.7376 435.204 71.1856C433.796 71.6336 432.218 71.8576 430.468 71.8576C428.932 71.8576 427.577 71.623 426.404 71.1536C425.231 70.6843 424.313 69.927 423.652 68.8816C422.991 67.8363 422.66 66.4496 422.66 64.7216C422.66 63.7616 422.671 62.7056 422.692 61.5536C422.714 60.3803 422.745 59.175 422.788 57.9376C422.831 56.7003 422.863 55.495 422.884 54.3216C422.927 53.127 422.959 52.0283 422.98 51.0256C423.001 50.023 423.012 49.191 423.012 48.5296C423.012 47.911 422.991 47.335 422.948 46.8016C422.905 46.247 422.831 45.735 422.724 45.2656L425.956 45.2976Z" fill="#575757"/>
<path d="M393.254 44.6228H408.038V46.6068H393.254V44.6228ZM392.87 53.5188H408.614V55.5028H392.87V53.5188ZM392.87 57.9668H408.55V59.9508H392.87V57.9668ZM393.798 69.0388H407.654V71.0548H393.798V69.0388ZM390.246 49.0708H411.078V51.0868H390.246V49.0708ZM392.55 62.4148H408.902V72.4628H406.502V64.3668H394.854V72.5588H392.55V62.4148ZM389.158 43.2148L391.398 43.9188C390.672 45.7108 389.819 47.4815 388.838 49.2308C387.878 50.9802 386.832 52.6228 385.702 54.1588C384.592 55.6948 383.451 57.0602 382.278 58.2548C382.192 58.0628 382.064 57.8175 381.894 57.5188C381.744 57.2202 381.584 56.9215 381.414 56.6228C381.243 56.3242 381.083 56.0788 380.934 55.8868C382 54.8628 383.046 53.6788 384.07 52.3348C385.094 50.9695 386.043 49.5188 386.918 47.9828C387.792 46.4255 388.539 44.8362 389.158 43.2148ZM385.83 51.4708L388.07 49.1988L388.134 49.2308V72.4628H385.83V51.4708Z" fill="#575757"/>
<path d="M359.813 44.6888C359.685 45.3288 359.514 46.0862 359.301 46.9608C359.109 47.8142 358.789 48.7848 358.341 49.8728C357.957 50.8328 357.477 51.8248 356.901 52.8488C356.346 53.8728 355.749 54.8008 355.109 55.6328C355.514 55.3768 355.973 55.1635 356.485 54.9928C356.997 54.8008 357.519 54.6622 358.053 54.5768C358.607 54.4915 359.109 54.4488 359.557 54.4488C360.794 54.4488 361.839 54.8008 362.693 55.5048C363.546 56.1875 363.973 57.1902 363.973 58.5128C363.973 58.9182 363.973 59.4408 363.973 60.0808C363.973 60.6995 363.973 61.3608 363.973 62.0648C363.994 62.7475 364.015 63.4195 364.037 64.0808C364.058 64.7422 364.069 65.3182 364.069 65.8088H361.605C361.626 65.3822 361.647 64.8808 361.669 64.3048C361.69 63.7288 361.701 63.1208 361.701 62.4808C361.722 61.8408 361.722 61.2328 361.701 60.6568C361.701 60.0808 361.701 59.5902 361.701 59.1848C361.701 58.2462 361.413 57.5635 360.837 57.1368C360.282 56.6888 359.578 56.4648 358.725 56.4648C357.722 56.4648 356.73 56.6888 355.749 57.1368C354.789 57.5635 353.946 58.1182 353.221 58.8008C352.751 59.2488 352.282 59.7608 351.813 60.3368C351.365 60.8915 350.863 61.4888 350.309 62.1288L348.133 60.5288C349.669 59.0355 350.949 57.6382 351.973 56.3368C352.997 55.0355 353.829 53.8302 354.469 52.7208C355.109 51.5902 355.61 50.5768 355.973 49.6808C356.314 48.7848 356.591 47.8888 356.805 46.9928C357.018 46.0755 357.146 45.2328 357.189 44.4648L359.813 44.6888ZM348.869 48.1448C349.722 48.2515 350.65 48.3368 351.653 48.4008C352.655 48.4648 353.53 48.4968 354.277 48.4968C355.706 48.4968 357.242 48.4648 358.885 48.4008C360.527 48.3155 362.181 48.1982 363.845 48.0488C365.53 47.8995 367.13 47.6862 368.645 47.4088L368.613 49.7768C367.503 49.9688 366.319 50.1288 365.061 50.2568C363.802 50.3635 362.522 50.4595 361.221 50.5448C359.919 50.6088 358.661 50.6622 357.445 50.7048C356.25 50.7262 355.141 50.7368 354.117 50.7368C353.669 50.7368 353.146 50.7368 352.549 50.7368C351.973 50.7155 351.365 50.6942 350.725 50.6728C350.085 50.6302 349.466 50.5875 348.869 50.5448V48.1448ZM373.317 55.8888C373.039 55.9528 372.73 56.0488 372.389 56.1768C372.069 56.2835 371.738 56.4008 371.397 56.5288C371.077 56.6568 370.767 56.7848 370.469 56.9128C369.359 57.3395 368.069 57.8622 366.597 58.4808C365.125 59.0995 363.621 59.8142 362.085 60.6248C361.018 61.1582 360.079 61.7235 359.269 62.3208C358.458 62.8968 357.818 63.5048 357.349 64.1448C356.879 64.7635 356.645 65.4462 356.645 66.1928C356.645 66.8115 356.783 67.3128 357.061 67.6968C357.359 68.0808 357.775 68.3795 358.309 68.5928C358.842 68.7848 359.45 68.9128 360.133 68.9768C360.837 69.0408 361.605 69.0728 362.437 69.0728C363.674 69.0728 365.082 69.0088 366.661 68.8808C368.261 68.7315 369.765 68.5395 371.173 68.3048L371.109 70.8648C370.298 70.9715 369.381 71.0675 368.357 71.1528C367.354 71.2382 366.33 71.3022 365.285 71.3448C364.261 71.4088 363.279 71.4408 362.341 71.4408C360.826 71.4408 359.439 71.3022 358.181 71.0248C356.943 70.7475 355.951 70.2568 355.205 69.5528C354.458 68.8488 354.085 67.8462 354.085 66.5448C354.085 65.5848 354.309 64.7102 354.757 63.9208C355.205 63.1102 355.802 62.3742 356.549 61.7128C357.317 61.0515 358.159 60.4435 359.077 59.8888C359.994 59.3128 360.933 58.7902 361.893 58.3208C362.917 57.7662 363.877 57.2862 364.773 56.8808C365.69 56.4755 366.554 56.1022 367.365 55.7608C368.175 55.4195 368.933 55.0782 369.637 54.7368C370.106 54.5235 370.554 54.3208 370.981 54.1288C371.407 53.9368 371.834 53.7235 372.261 53.4888L373.317 55.8888Z" fill="#575757"/>
<path d="M326.343 50.8975C325.98 51.1321 325.596 51.3561 325.191 51.5695C324.785 51.7828 324.348 52.0068 323.879 52.2415C323.345 52.5401 322.684 52.8815 321.895 53.2655C321.105 53.6495 320.263 54.0761 319.367 54.5455C318.471 55.0148 317.575 55.5055 316.679 56.0175C315.783 56.5295 314.94 57.0415 314.151 57.5535C312.657 58.5135 311.484 59.5268 310.631 60.5935C309.799 61.6601 309.383 62.8015 309.383 64.0175C309.383 65.3401 310.012 66.3961 311.271 67.1855C312.551 67.9535 314.449 68.3375 316.967 68.3375C318.14 68.3375 319.356 68.2948 320.615 68.2095C321.873 68.1028 323.079 67.9641 324.231 67.7935C325.404 67.6228 326.396 67.4415 327.207 67.2495V70.0975C326.417 70.2468 325.479 70.3748 324.391 70.4815C323.324 70.6095 322.172 70.7055 320.935 70.7695C319.697 70.8548 318.417 70.8975 317.095 70.8975C315.58 70.8975 314.193 70.7695 312.935 70.5135C311.676 70.2788 310.577 69.9055 309.639 69.3935C308.721 68.8815 308.007 68.2095 307.495 67.3775C306.983 66.5241 306.727 65.5001 306.727 64.3055C306.727 63.1321 306.972 62.0548 307.463 61.0735C307.953 60.0708 308.657 59.1215 309.575 58.2255C310.492 57.3295 311.58 56.4655 312.839 55.6335C313.649 55.0788 314.513 54.5455 315.431 54.0335C316.369 53.5001 317.287 52.9881 318.183 52.4975C319.079 52.0068 319.911 51.5588 320.679 51.1535C321.468 50.7481 322.129 50.4068 322.663 50.1295C323.111 49.8521 323.516 49.6068 323.879 49.3935C324.241 49.1588 324.593 48.9028 324.935 48.6255L326.343 50.8975ZM310.151 45.1055C310.641 46.4708 311.164 47.8041 311.719 49.1055C312.295 50.4068 312.871 51.6228 313.447 52.7535C314.044 53.8841 314.588 54.8868 315.079 55.7615L312.871 57.0735C312.337 56.1988 311.772 55.1641 311.175 53.9695C310.577 52.7748 309.98 51.5055 309.383 50.1615C308.785 48.8175 308.199 47.4841 307.623 46.1615L310.151 45.1055Z" fill="#E8601C"/>
<path d="M289.551 46.3516C289.721 47.3116 289.945 48.3569 290.223 49.4876C290.521 50.6182 290.916 51.7809 291.407 52.9756C291.919 54.1702 292.569 55.3649 293.359 56.5596C294.169 57.7329 295.161 58.8422 296.335 59.8876L294.671 62.1596C293.497 60.9009 292.452 59.5249 291.535 58.0316C290.617 56.5169 289.796 54.8529 289.071 53.0396C288.345 51.2262 287.663 49.2316 287.023 47.0556L289.551 46.3516ZM269.551 48.0476C270.041 48.0902 270.607 48.0902 271.247 48.0476C271.972 48.0262 272.815 47.9622 273.775 47.8556C274.735 47.7489 275.705 47.6209 276.687 47.4716C277.668 47.3222 278.575 47.1622 279.407 46.9916C280.26 46.8209 280.921 46.6396 281.391 46.4476L282.127 48.7196C281.913 48.7622 281.636 48.8369 281.295 48.9436C280.953 49.0502 280.665 49.1676 280.431 49.2956C280.025 49.5942 279.524 50.0422 278.927 50.6396C278.351 51.2369 277.743 51.9729 277.103 52.8476C276.484 53.7009 275.897 54.6609 275.343 55.7276C274.809 56.7942 274.372 57.9356 274.031 59.1516C273.689 60.3676 273.519 61.6369 273.519 62.9596C273.519 64.0902 273.679 65.0396 273.999 65.8076C274.34 66.5756 274.809 67.1942 275.407 67.6636C276.004 68.1329 276.676 68.4742 277.423 68.6876C278.169 68.9009 278.948 69.0076 279.759 69.0076C282.319 69.0076 284.303 68.1542 285.711 66.4476C287.14 64.7196 288.004 62.2982 288.303 59.1836C288.601 56.0689 288.345 52.4209 287.535 48.2396L289.903 52.5916C290.223 54.4049 290.393 56.2289 290.415 58.0636C290.457 59.8769 290.287 61.5942 289.903 63.2156C289.54 64.8369 288.943 66.2769 288.111 67.5356C287.279 68.7942 286.169 69.7862 284.783 70.5116C283.396 71.2369 281.7 71.5996 279.695 71.5996C278.436 71.5996 277.273 71.4182 276.207 71.0556C275.161 70.7142 274.244 70.2129 273.455 69.5516C272.665 68.8689 272.057 68.0262 271.631 67.0236C271.204 65.9996 270.991 64.8262 270.991 63.5036C270.991 62.0102 271.172 60.6022 271.535 59.2796C271.897 57.9569 272.367 56.7302 272.943 55.5996C273.519 54.4476 274.159 53.3809 274.863 52.3996C275.567 51.4182 276.271 50.5329 276.975 49.7436C276.42 49.8289 275.791 49.9249 275.087 50.0316C274.404 50.1169 273.743 50.2022 273.103 50.2876C272.463 50.3516 271.94 50.4156 271.535 50.4796C271.236 50.5009 270.937 50.5329 270.639 50.5756C270.361 50.6182 270.063 50.6716 269.743 50.7356L269.551 48.0476Z" fill="#E8601C"/>
<path d="M242.799 71.792C242.116 70.9387 241.369 70.0854 240.559 69.232C239.748 68.3787 238.927 67.5574 238.095 66.768C237.284 65.9787 236.495 65.2747 235.727 64.656L237.807 62.832C238.575 63.4507 239.385 64.1654 240.239 64.976C241.092 65.7867 241.924 66.6187 242.735 67.472C243.567 68.3254 244.313 69.1467 244.975 69.936L242.799 71.792Z" fill="#575757"/>
<path d="M209.741 45.0711C209.656 45.6044 209.592 46.1484 209.549 46.7031C209.507 47.2364 209.475 47.7697 209.453 48.3031C209.411 49.1991 209.368 50.3084 209.325 51.6311C209.283 52.9537 209.24 54.3617 209.197 55.8551C209.155 57.3271 209.123 58.7991 209.101 60.2711C209.08 61.7431 209.069 63.0657 209.069 64.2391C209.069 65.4124 209.293 66.3511 209.741 67.0551C210.189 67.7591 210.808 68.2604 211.597 68.5591C212.387 68.8577 213.293 69.0071 214.317 69.0071C215.768 69.0071 217.08 68.8257 218.253 68.4631C219.427 68.0791 220.472 67.5777 221.389 66.9591C222.307 66.3191 223.117 65.6044 223.821 64.8151C224.547 64.0257 225.197 63.2151 225.773 62.3831L227.597 64.5591C227.043 65.3271 226.36 66.1271 225.549 66.9591C224.76 67.7697 223.821 68.5271 222.733 69.2311C221.645 69.9351 220.387 70.5111 218.957 70.9591C217.549 71.4071 215.971 71.6311 214.221 71.6311C212.707 71.6311 211.363 71.3964 210.189 70.9271C209.016 70.4577 208.099 69.7004 207.437 68.6551C206.776 67.6097 206.445 66.2231 206.445 64.4951C206.445 63.5351 206.456 62.4791 206.477 61.3271C206.499 60.1537 206.531 58.9484 206.573 57.7111C206.616 56.4737 206.648 55.2684 206.669 54.0951C206.691 52.9004 206.712 51.8017 206.733 50.7991C206.755 49.7964 206.765 48.9644 206.765 48.3031C206.765 47.7057 206.744 47.1297 206.701 46.5751C206.659 46.0204 206.595 45.5084 206.509 45.0391L209.741 45.0711Z" fill="#575757"/>
<path d="M166.191 50.5778H193.167V56.4018H190.767V52.5298H168.463V56.1778H166.191V50.5778ZM189.871 43.0898L191.471 44.7858C189.977 45.0845 188.271 45.3618 186.351 45.6178C184.452 45.8525 182.436 46.0552 180.303 46.2258C178.191 46.3965 176.057 46.5352 173.903 46.6418C171.769 46.7485 169.711 46.8232 167.727 46.8658C167.705 46.5885 167.641 46.2685 167.535 45.9058C167.428 45.5432 167.321 45.2445 167.215 45.0098C169.177 44.9672 171.215 44.8925 173.327 44.7858C175.439 44.6792 177.508 44.5405 179.535 44.3698C181.583 44.1992 183.492 44.0178 185.263 43.8258C187.055 43.6125 188.591 43.3672 189.871 43.0898ZM170.095 47.1858L172.015 46.3858C172.527 46.9405 172.996 47.5698 173.423 48.2738C173.871 48.9565 174.18 49.5752 174.351 50.1298L172.303 51.0258C172.153 50.4925 171.865 49.8632 171.439 49.1378C171.012 48.4125 170.564 47.7618 170.095 47.1858ZM177.071 46.5778L179.055 45.8738C179.524 46.4712 179.94 47.1538 180.303 47.9218C180.687 48.6685 180.953 49.3192 181.103 49.8738L178.991 50.6418C178.884 50.0872 178.649 49.4258 178.287 48.6578C177.924 47.8898 177.519 47.1965 177.071 46.5778ZM185.679 55.1858L187.311 54.0338C187.929 54.5032 188.559 55.0365 189.199 55.6338C189.86 56.2098 190.468 56.7965 191.023 57.3938C191.599 57.9698 192.047 58.5032 192.367 58.9938L190.607 60.2738C190.287 59.8045 189.849 59.2712 189.295 58.6738C188.761 58.0552 188.175 57.4472 187.535 56.8498C186.916 56.2312 186.297 55.6765 185.679 55.1858ZM176.655 53.5538L177.903 52.2418C178.735 52.5832 179.609 53.0098 180.527 53.5218C181.444 54.0125 182.169 54.4712 182.703 54.8978L181.455 56.3698C180.921 55.9218 180.196 55.4312 179.279 54.8978C178.383 54.3645 177.508 53.9165 176.655 53.5538ZM187.823 45.8418L190.159 46.7058C189.583 47.5592 188.964 48.4232 188.303 49.2978C187.663 50.1512 187.076 50.8872 186.543 51.5058L184.751 50.7378C185.092 50.2898 185.455 49.7885 185.839 49.2338C186.223 48.6578 186.596 48.0712 186.959 47.4738C187.321 46.8552 187.609 46.3112 187.823 45.8418ZM185.935 62.1298H186.447L186.863 62.0338L188.399 63.0578C187.375 64.5298 186.095 65.8098 184.559 66.8978C183.023 67.9858 181.284 68.9032 179.343 69.6498C177.423 70.3965 175.385 71.0045 173.231 71.4738C171.076 71.9645 168.889 72.3485 166.671 72.6258C166.607 72.4338 166.5 72.2098 166.351 71.9538C166.201 71.6978 166.041 71.4525 165.871 71.2178C165.7 70.9832 165.54 70.7805 165.391 70.6098C167.588 70.4178 169.732 70.1192 171.823 69.7138C173.913 69.3085 175.865 68.7752 177.679 68.1138C179.513 67.4525 181.135 66.6632 182.543 65.7458C183.951 64.8072 185.081 63.7192 185.935 62.4818V62.1298ZM173.967 63.4098C174.905 64.4338 176.068 65.3512 177.455 66.1618C178.841 66.9512 180.409 67.6445 182.159 68.2418C183.929 68.8178 185.817 69.2872 187.823 69.6498C189.849 70.0125 191.951 70.2898 194.127 70.4818C193.956 70.6312 193.785 70.8338 193.615 71.0898C193.444 71.3672 193.273 71.6338 193.103 71.8898C192.953 72.1672 192.825 72.4018 192.719 72.5938C190.543 72.3805 188.441 72.0498 186.415 71.6018C184.388 71.1752 182.479 70.6205 180.687 69.9378C178.895 69.2338 177.263 68.4125 175.791 67.4738C174.34 66.5352 173.103 65.4472 172.079 64.2098L173.967 63.4098ZM176.143 59.4738L178.255 60.2098C177.38 61.2978 176.345 62.3218 175.151 63.2818C173.977 64.2418 172.729 65.1165 171.407 65.9058C170.105 66.6738 168.804 67.3458 167.503 67.9218C167.396 67.7725 167.236 67.6018 167.023 67.4098C166.831 67.1965 166.617 66.9938 166.383 66.8018C166.169 66.6098 165.977 66.4498 165.807 66.3218C167.151 65.8098 168.463 65.2125 169.743 64.5298C171.044 63.8258 172.249 63.0472 173.359 62.1938C174.468 61.3192 175.396 60.4125 176.143 59.4738ZM174.063 54.3858H176.303V57.4578C176.303 57.7778 176.399 57.9912 176.591 58.0978C176.804 58.1832 177.241 58.2258 177.903 58.2258C178.052 58.2258 178.329 58.2258 178.735 58.2258C179.161 58.2258 179.631 58.2258 180.143 58.2258C180.655 58.2258 181.135 58.2258 181.583 58.2258C182.052 58.2258 182.393 58.2258 182.607 58.2258C182.948 58.2258 183.204 58.1832 183.375 58.0978C183.545 57.9912 183.663 57.7885 183.727 57.4898C183.812 57.1912 183.876 56.7325 183.919 56.1138C184.153 56.2632 184.452 56.4018 184.815 56.5298C185.177 56.6365 185.508 56.7218 185.807 56.7858C185.743 57.6605 185.615 58.3325 185.423 58.8018C185.231 59.2498 184.932 59.5698 184.527 59.7618C184.121 59.9325 183.567 60.0178 182.863 60.0178C182.735 60.0178 182.489 60.0178 182.127 60.0178C181.785 60.0178 181.391 60.0178 180.943 60.0178C180.495 60.0178 180.036 60.0178 179.567 60.0178C179.119 60.0178 178.724 60.0178 178.383 60.0178C178.041 60.0178 177.807 60.0178 177.679 60.0178C176.719 60.0178 175.972 59.9538 175.439 59.8258C174.927 59.6765 174.564 59.4205 174.351 59.0578C174.159 58.6738 174.063 58.1405 174.063 57.4578V54.3858ZM170.927 54.4498L172.783 55.2178C172.42 56.2418 171.908 57.2552 171.247 58.2578C170.607 59.2392 169.753 60.0498 168.687 60.6898L167.023 59.3138C167.983 58.7805 168.783 58.0765 169.423 57.2018C170.084 56.3058 170.585 55.3885 170.927 54.4498ZM174.703 62.1298H186.479V63.8898H172.911L174.703 62.1298Z" fill="#575757"/>
<path d="M143.18 44.6888C143.052 45.3288 142.881 46.0862 142.668 46.9608C142.476 47.8142 142.156 48.7848 141.708 49.8728C141.324 50.8328 140.844 51.8248 140.268 52.8488C139.713 53.8728 139.116 54.8008 138.476 55.6328C138.881 55.3768 139.34 55.1635 139.852 54.9928C140.364 54.8008 140.887 54.6622 141.42 54.5768C141.975 54.4915 142.476 54.4488 142.924 54.4488C144.161 54.4488 145.207 54.8008 146.06 55.5048C146.913 56.1875 147.34 57.1902 147.34 58.5128C147.34 58.9182 147.34 59.4408 147.34 60.0808C147.34 60.6995 147.34 61.3608 147.34 62.0648C147.361 62.7475 147.383 63.4195 147.404 64.0808C147.425 64.7422 147.436 65.3182 147.436 65.8088H144.972C144.993 65.3822 145.015 64.8808 145.036 64.3048C145.057 63.7288 145.068 63.1208 145.068 62.4808C145.089 61.8408 145.089 61.2328 145.068 60.6568C145.068 60.0808 145.068 59.5902 145.068 59.1848C145.068 58.2462 144.78 57.5635 144.204 57.1368C143.649 56.6888 142.945 56.4648 142.092 56.4648C141.089 56.4648 140.097 56.6888 139.116 57.1368C138.156 57.5635 137.313 58.1182 136.588 58.8008C136.119 59.2488 135.649 59.7608 135.18 60.3368C134.732 60.8915 134.231 61.4888 133.676 62.1288L131.5 60.5288C133.036 59.0355 134.316 57.6382 135.34 56.3368C136.364 55.0355 137.196 53.8302 137.836 52.7208C138.476 51.5902 138.977 50.5768 139.34 49.6808C139.681 48.7848 139.959 47.8888 140.172 46.9928C140.385 46.0755 140.513 45.2328 140.556 44.4648L143.18 44.6888ZM132.236 48.1448C133.089 48.2515 134.017 48.3368 135.02 48.4008C136.023 48.4648 136.897 48.4968 137.644 48.4968C139.073 48.4968 140.609 48.4648 142.252 48.4008C143.895 48.3155 145.548 48.1982 147.212 48.0488C148.897 47.8995 150.497 47.6862 152.012 47.4088L151.98 49.7768C150.871 49.9688 149.687 50.1288 148.428 50.2568C147.169 50.3635 145.889 50.4595 144.588 50.5448C143.287 50.6088 142.028 50.6622 140.812 50.7048C139.617 50.7262 138.508 50.7368 137.484 50.7368C137.036 50.7368 136.513 50.7368 135.916 50.7368C135.34 50.7155 134.732 50.6942 134.092 50.6728C133.452 50.6302 132.833 50.5875 132.236 50.5448V48.1448ZM156.684 55.8888C156.407 55.9528 156.097 56.0488 155.756 56.1768C155.436 56.2835 155.105 56.4008 154.764 56.5288C154.444 56.6568 154.135 56.7848 153.836 56.9128C152.727 57.3395 151.436 57.8622 149.964 58.4808C148.492 59.0995 146.988 59.8142 145.452 60.6248C144.385 61.1582 143.447 61.7235 142.636 62.3208C141.825 62.8968 141.185 63.5048 140.716 64.1448C140.247 64.7635 140.012 65.4462 140.012 66.1928C140.012 66.8115 140.151 67.3128 140.428 67.6968C140.727 68.0808 141.143 68.3795 141.676 68.5928C142.209 68.7848 142.817 68.9128 143.5 68.9768C144.204 69.0408 144.972 69.0728 145.804 69.0728C147.041 69.0728 148.449 69.0088 150.028 68.8808C151.628 68.7315 153.132 68.5395 154.54 68.3048L154.476 70.8648C153.665 70.9715 152.748 71.0675 151.724 71.1528C150.721 71.2382 149.697 71.3022 148.652 71.3448C147.628 71.4088 146.647 71.4408 145.708 71.4408C144.193 71.4408 142.807 71.3022 141.548 71.0248C140.311 70.7475 139.319 70.2568 138.572 69.5528C137.825 68.8488 137.452 67.8462 137.452 66.5448C137.452 65.5848 137.676 64.7102 138.124 63.9208C138.572 63.1102 139.169 62.3742 139.916 61.7128C140.684 61.0515 141.527 60.4435 142.444 59.8888C143.361 59.3128 144.3 58.7902 145.26 58.3208C146.284 57.7662 147.244 57.2862 148.14 56.8808C149.057 56.4755 149.921 56.1022 150.732 55.7608C151.543 55.4195 152.3 55.0782 153.004 54.7368C153.473 54.5235 153.921 54.3208 154.348 54.1288C154.775 53.9368 155.201 53.7235 155.628 53.4888L156.684 55.8888Z" fill="#575757"/>
<path d="M90.5105 50.8975C90.1479 51.1321 89.7639 51.3561 89.3585 51.5695C88.9532 51.7828 88.5159 52.0068 88.0465 52.2415C87.5132 52.5401 86.8519 52.8815 86.0625 53.2655C85.2732 53.6495 84.4305 54.0761 83.5345 54.5455C82.6385 55.0148 81.7425 55.5055 80.8465 56.0175C79.9505 56.5295 79.1079 57.0415 78.3185 57.5535C76.8252 58.5135 75.6519 59.5268 74.7985 60.5935C73.9665 61.6601 73.5505 62.8015 73.5505 64.0175C73.5505 65.3401 74.1799 66.3961 75.4385 67.1855C76.7185 67.9535 78.6172 68.3375 81.1345 68.3375C82.3079 68.3375 83.5239 68.2948 84.7825 68.2095C86.0412 68.1028 87.2465 67.9641 88.3985 67.7935C89.5719 67.6228 90.5639 67.4415 91.3745 67.2495V70.0975C90.5852 70.2468 89.6465 70.3748 88.5585 70.4815C87.4919 70.6095 86.3399 70.7055 85.1025 70.7695C83.8652 70.8548 82.5852 70.8975 81.2625 70.8975C79.7479 70.8975 78.3612 70.7695 77.1025 70.5135C75.8439 70.2788 74.7452 69.9055 73.8065 69.3935C72.8892 68.8815 72.1745 68.2095 71.6625 67.3775C71.1505 66.5241 70.8945 65.5001 70.8945 64.3055C70.8945 63.1321 71.1399 62.0548 71.6305 61.0735C72.1212 60.0708 72.8252 59.1215 73.7425 58.2255C74.6599 57.3295 75.7479 56.4655 77.0065 55.6335C77.8172 55.0788 78.6812 54.5455 79.5985 54.0335C80.5372 53.5001 81.4545 52.9881 82.3505 52.4975C83.2465 52.0068 84.0785 51.5588 84.8465 51.1535C85.6359 50.7481 86.2972 50.4068 86.8305 50.1295C87.2785 49.8521 87.6839 49.6068 88.0465 49.3935C88.4092 49.1588 88.7612 48.9028 89.1025 48.6255L90.5105 50.8975ZM74.3185 45.1055C74.8092 46.4708 75.3319 47.8041 75.8865 49.1055C76.4625 50.4068 77.0385 51.6228 77.6145 52.7535C78.2119 53.8841 78.7559 54.8868 79.2465 55.7615L77.0385 57.0735C76.5052 56.1988 75.9399 55.1641 75.3425 53.9695C74.7452 52.7748 74.1479 51.5055 73.5505 50.1615C72.9532 48.8175 72.3665 47.4841 71.7905 46.1615L74.3185 45.1055Z" fill="#E8601C"/>
<path d="M53.7188 46.3516C53.8894 47.3116 54.1134 48.3569 54.3908 49.4876C54.6894 50.6182 55.0841 51.7809 55.5748 52.9756C56.0868 54.1702 56.7374 55.3649 57.5268 56.5596C58.3374 57.7329 59.3294 58.8422 60.5028 59.8876L58.8388 62.1596C57.6654 60.9009 56.6201 59.5249 55.7028 58.0316C54.7854 56.5169 53.9641 54.8529 53.2388 53.0396C52.5134 51.2262 51.8308 49.2316 51.1908 47.0556L53.7188 46.3516ZM33.7188 48.0476C34.2094 48.0902 34.7747 48.0902 35.4147 48.0476C36.1401 48.0262 36.9827 47.9622 37.9427 47.8556C38.9028 47.7489 39.8734 47.6209 40.8548 47.4716C41.8361 47.3222 42.7428 47.1622 43.5748 46.9916C44.4281 46.8209 45.0894 46.6396 45.5588 46.4476L46.2948 48.7196C46.0814 48.7622 45.8041 48.8369 45.4628 48.9436C45.1214 49.0502 44.8334 49.1676 44.5988 49.2956C44.1934 49.5942 43.6921 50.0422 43.0948 50.6396C42.5188 51.2369 41.9108 51.9729 41.2708 52.8476C40.6521 53.7009 40.0654 54.6609 39.5108 55.7276C38.9774 56.7942 38.5401 57.9356 38.1988 59.1516C37.8574 60.3676 37.6868 61.6369 37.6868 62.9596C37.6868 64.0902 37.8467 65.0396 38.1667 65.8076C38.5081 66.5756 38.9774 67.1942 39.5748 67.6636C40.1721 68.1329 40.8441 68.4742 41.5908 68.6876C42.3374 68.9009 43.1161 69.0076 43.9268 69.0076C46.4868 69.0076 48.4708 68.1542 49.8787 66.4476C51.3081 64.7196 52.1721 62.2982 52.4708 59.1836C52.7694 56.0689 52.5134 52.4209 51.7027 48.2396L54.0708 52.5916C54.3908 54.4049 54.5614 56.2289 54.5828 58.0636C54.6254 59.8769 54.4548 61.5942 54.0708 63.2156C53.7081 64.8369 53.1108 66.2769 52.2787 67.5356C51.4467 68.7942 50.3374 69.7862 48.9508 70.5116C47.5641 71.2369 45.8681 71.5996 43.8628 71.5996C42.6041 71.5996 41.4414 71.4182 40.3748 71.0556C39.3294 70.7142 38.4121 70.2129 37.6228 69.5516C36.8334 68.8689 36.2254 68.0262 35.7988 67.0236C35.3721 65.9996 35.1588 64.8262 35.1588 63.5036C35.1588 62.0102 35.3401 60.6022 35.7027 59.2796C36.0654 57.9569 36.5348 56.7302 37.1107 55.5996C37.6868 54.4476 38.3268 53.3809 39.0308 52.3996C39.7348 51.4182 40.4388 50.5329 41.1428 49.7436C40.5881 49.8289 39.9588 49.9249 39.2548 50.0316C38.5721 50.1169 37.9107 50.2022 37.2708 50.2876C36.6308 50.3516 36.1081 50.4156 35.7027 50.4796C35.4041 50.5009 35.1054 50.5329 34.8068 50.5756C34.5294 50.6182 34.2308 50.6716 33.9107 50.7356L33.7188 48.0476Z" fill="#E8601C"/>
<path d="M21 1H1V21M93 1H113V21M113 93V113H93M21 113H1V93" stroke="#B4B1B1" stroke-width="2"/>
</svg>
