<svg width="421" height="102" viewBox="0 0 421 102" fill="none" xmlns="http://www.w3.org/2000/svg">
<path d="M416.194 55.3125C416.94 55.3125 417.607 55.4945 418.196 55.8585C418.785 56.2052 419.262 56.6818 419.626 57.2885C419.99 57.8778 420.172 58.5365 420.172 59.2645C420.172 59.9925 419.99 60.6598 419.626 61.2665C419.262 61.8558 418.785 62.3325 418.196 62.6965C417.607 63.0605 416.94 63.2425 416.194 63.2425C415.466 63.2425 414.799 63.0605 414.192 62.6965C413.603 62.3325 413.126 61.8558 412.762 61.2665C412.416 60.6598 412.242 59.9925 412.242 59.2645C412.242 58.5365 412.416 57.8778 412.762 57.2885C413.126 56.6818 413.612 56.2052 414.218 55.8585C414.825 55.4945 415.484 55.3125 416.194 55.3125ZM416.194 61.9165C416.94 61.9165 417.563 61.6652 418.066 61.1625C418.586 60.6425 418.846 60.0098 418.846 59.2645C418.846 58.7965 418.725 58.3632 418.482 57.9645C418.257 57.5658 417.945 57.2452 417.546 57.0025C417.148 56.7598 416.697 56.6385 416.194 56.6385C415.726 56.6385 415.293 56.7598 414.894 57.0025C414.495 57.2452 414.175 57.5658 413.932 57.9645C413.69 58.3632 413.568 58.7965 413.568 59.2645C413.568 59.7498 413.69 60.2005 413.932 60.6165C414.175 61.0152 414.495 61.3358 414.894 61.5785C415.293 61.8038 415.726 61.9165 416.194 61.9165Z" fill="#575757"/>
<path d="M388.737 42.4928C389.032 42.5274 389.344 42.5534 389.673 42.5708C390.02 42.5881 390.323 42.5968 390.583 42.5968C390.843 42.5968 391.268 42.5881 391.857 42.5708C392.464 42.5534 393.14 42.5361 393.885 42.5188C394.648 42.4841 395.402 42.4581 396.147 42.4408C396.91 42.4061 397.586 42.3714 398.175 42.3368C398.782 42.3021 399.224 42.2761 399.501 42.2588C399.882 42.2241 400.177 42.1894 400.385 42.1548C400.593 42.1201 400.766 42.0854 400.905 42.0508L402.101 43.5588C401.876 43.7148 401.633 43.8794 401.373 44.0528C401.13 44.2261 400.888 44.4168 400.645 44.6248C400.316 44.8674 399.874 45.2228 399.319 45.6908C398.764 46.1414 398.149 46.6528 397.473 47.2248C396.814 47.7794 396.164 48.3254 395.523 48.8628C394.882 49.4001 394.301 49.8854 393.781 50.3188C394.388 50.1108 394.994 49.9721 395.601 49.9028C396.225 49.8161 396.823 49.7728 397.395 49.7728C398.834 49.7728 400.108 50.0414 401.217 50.5788C402.344 51.0988 403.219 51.8181 403.843 52.7368C404.484 53.6554 404.805 54.7041 404.805 55.8828C404.805 57.2694 404.441 58.4828 403.713 59.5228C402.985 60.5628 401.954 61.3601 400.619 61.9148C399.284 62.4868 397.698 62.7728 395.861 62.7728C394.682 62.7728 393.668 62.6168 392.819 62.3048C391.97 61.9928 391.311 61.5594 390.843 61.0048C390.392 60.4501 390.167 59.8088 390.167 59.0808C390.167 58.4914 390.332 57.9368 390.661 57.4168C390.99 56.8968 391.458 56.4808 392.065 56.1688C392.672 55.8568 393.374 55.7008 394.171 55.7008C395.332 55.7008 396.294 55.9434 397.057 56.4288C397.82 56.8968 398.409 57.5208 398.825 58.3008C399.241 59.0634 399.475 59.8868 399.527 60.7708L397.655 61.0828C397.586 59.9734 397.239 59.0634 396.615 58.3528C396.008 57.6248 395.185 57.2608 394.145 57.2608C393.556 57.2608 393.062 57.4254 392.663 57.7548C392.264 58.0841 392.065 58.4741 392.065 58.9248C392.065 59.5488 392.386 60.0428 393.027 60.4068C393.668 60.7708 394.5 60.9528 395.523 60.9528C396.996 60.9528 398.27 60.7534 399.345 60.3548C400.437 59.9561 401.269 59.3754 401.841 58.6128C402.43 57.8501 402.725 56.9314 402.725 55.8568C402.725 55.0074 402.474 54.2448 401.971 53.5688C401.468 52.8928 400.775 52.3641 399.891 51.9828C399.024 51.5841 398.028 51.3848 396.901 51.3848C395.809 51.3848 394.83 51.5061 393.963 51.7488C393.096 51.9741 392.282 52.3034 391.519 52.7368C390.774 53.1701 390.028 53.7161 389.283 54.3748C388.555 55.0161 387.775 55.7528 386.943 56.5848L385.461 55.0508C385.998 54.6174 386.588 54.1321 387.229 53.5948C387.888 53.0401 388.546 52.4941 389.205 51.9568C389.864 51.4021 390.47 50.8908 391.025 50.4228C391.597 49.9374 392.074 49.5388 392.455 49.2268C392.819 48.9321 393.27 48.5594 393.807 48.1088C394.362 47.6408 394.934 47.1554 395.523 46.6528C396.112 46.1501 396.667 45.6734 397.187 45.2228C397.724 44.7721 398.158 44.4081 398.487 44.1308C398.21 44.1308 397.802 44.1481 397.265 44.1828C396.728 44.2001 396.13 44.2261 395.471 44.2608C394.812 44.2781 394.154 44.3041 393.495 44.3388C392.854 44.3734 392.264 44.4081 391.727 44.4428C391.207 44.4601 390.808 44.4774 390.531 44.4948C390.254 44.5121 389.968 44.5294 389.673 44.5468C389.378 44.5641 389.092 44.5988 388.815 44.6508L388.737 42.4928Z" fill="#575757"/>
<path d="M366.223 41.0637C366.154 41.2197 366.093 41.4104 366.041 41.6357C366.006 41.8437 365.963 42.0431 365.911 42.2337C365.772 42.9444 365.634 43.8457 365.495 44.9377C365.356 46.0297 365.244 47.1997 365.157 48.4477C365.07 49.6784 365.027 50.8917 365.027 52.0877C365.027 53.1971 365.096 54.2804 365.235 55.3377C365.391 56.3951 365.582 57.4091 365.807 58.3797C366.05 59.3331 366.301 60.2171 366.561 61.0317L364.689 61.6037C364.429 60.8237 364.186 59.9224 363.961 58.8997C363.736 57.8597 363.554 56.7764 363.415 55.6497C363.276 54.5057 363.207 53.3877 363.207 52.2957C363.207 51.3944 363.233 50.4757 363.285 49.5397C363.354 48.6037 363.432 47.6937 363.519 46.8097C363.606 45.9084 363.684 45.0677 363.753 44.2877C363.84 43.5077 363.918 42.8317 363.987 42.2597C364.004 42.0344 364.022 41.8091 364.039 41.5837C364.056 41.3584 364.056 41.1677 364.039 41.0117L366.223 41.0637ZM362.011 44.2877C363.536 44.2877 365.044 44.2444 366.535 44.1577C368.026 44.0711 369.456 43.9411 370.825 43.7677C372.212 43.5944 373.512 43.3691 374.725 43.0917L374.751 45.0157C373.815 45.1717 372.801 45.3191 371.709 45.4577C370.634 45.5791 369.534 45.6917 368.407 45.7957C367.28 45.8824 366.171 45.9517 365.079 46.0037C363.987 46.0557 362.956 46.0817 361.985 46.0817C361.621 46.0817 361.179 46.0731 360.659 46.0557C360.139 46.0211 359.619 45.9951 359.099 45.9777C358.579 45.9431 358.137 45.9171 357.773 45.8997L357.721 43.9497C358.033 44.0017 358.458 44.0537 358.995 44.1057C359.532 44.1577 360.078 44.2011 360.633 44.2357C361.188 44.2704 361.647 44.2877 362.011 44.2877ZM372.853 47.3297C372.801 47.4337 372.74 47.5811 372.671 47.7717C372.619 47.9451 372.558 48.1271 372.489 48.3177C372.437 48.4911 372.385 48.6557 372.333 48.8117C371.813 50.4064 371.189 51.8711 370.461 53.2057C369.733 54.5231 368.944 55.7017 368.095 56.7417C367.246 57.7644 366.37 58.6224 365.469 59.3157C364.62 59.9571 363.701 60.4944 362.713 60.9277C361.725 61.3611 360.772 61.5777 359.853 61.5777C359.298 61.5777 358.787 61.4564 358.319 61.2137C357.851 60.9711 357.478 60.6071 357.201 60.1217C356.924 59.6364 356.785 59.0297 356.785 58.3017C356.785 57.4177 356.976 56.5424 357.357 55.6757C357.738 54.7917 358.258 53.9597 358.917 53.1797C359.593 52.3997 360.356 51.7064 361.205 51.0997C362.072 50.4757 362.99 49.9731 363.961 49.5917C364.81 49.2797 365.729 49.0284 366.717 48.8377C367.722 48.6471 368.641 48.5517 369.473 48.5517C371.12 48.5517 372.541 48.8377 373.737 49.4097C374.933 49.9817 375.852 50.7617 376.493 51.7497C377.152 52.7204 377.481 53.8124 377.481 55.0257C377.481 55.9617 377.316 56.8544 376.987 57.7037C376.675 58.5531 376.172 59.3331 375.479 60.0437C374.803 60.7371 373.928 61.3351 372.853 61.8377C371.778 62.3404 370.487 62.7131 368.979 62.9557L367.861 61.2137C369.438 61.0577 370.79 60.6937 371.917 60.1217C373.044 59.5497 373.919 58.8217 374.543 57.9377C375.167 57.0537 375.479 56.0484 375.479 54.9217C375.479 54.0724 375.245 53.2924 374.777 52.5817C374.309 51.8711 373.624 51.2991 372.723 50.8657C371.839 50.4151 370.747 50.1897 369.447 50.1897C368.355 50.1897 367.341 50.3197 366.405 50.5797C365.486 50.8397 364.698 51.1171 364.039 51.4117C363.068 51.8451 362.176 52.4257 361.361 53.1537C360.564 53.8817 359.931 54.6704 359.463 55.5197C358.995 56.3517 358.761 57.1664 358.761 57.9637C358.761 58.5011 358.882 58.9084 359.125 59.1857C359.385 59.4457 359.758 59.5757 360.243 59.5757C360.884 59.5757 361.604 59.3937 362.401 59.0297C363.216 58.6657 364.048 58.1111 364.897 57.3657C366.058 56.3604 367.133 55.1297 368.121 53.6737C369.126 52.2177 369.924 50.4324 370.513 48.3177C370.548 48.1791 370.582 48.0231 370.617 47.8497C370.652 47.6764 370.686 47.4944 370.721 47.3037C370.773 47.1131 370.799 46.9484 370.799 46.8097L372.853 47.3297Z" fill="#575757"/>
<path d="M336.376 41.4528C336.341 41.6955 336.298 41.9555 336.246 42.2328C336.194 42.4928 336.142 42.7528 336.09 43.0128C336.02 43.3075 335.942 43.7235 335.856 44.2608C335.769 44.7981 335.665 45.3701 335.544 45.9768C335.44 46.5661 335.327 47.1381 335.206 47.6928C335.015 48.4208 334.79 49.2528 334.53 50.1888C334.287 51.1075 333.992 52.0955 333.646 53.1528C333.316 54.1928 332.944 55.2588 332.528 56.3508C332.112 57.4255 331.652 58.4915 331.15 59.5488C330.647 60.6061 330.101 61.6115 329.512 62.5648L327.406 61.7068C327.995 60.9268 328.55 60.0428 329.07 59.0548C329.59 58.0668 330.066 57.0441 330.5 55.9868C330.933 54.9121 331.323 53.8548 331.67 52.8148C332.016 51.7748 332.311 50.8128 332.554 49.9288C332.814 49.0275 333.013 48.2561 333.152 47.6148C333.394 46.5921 333.594 45.5175 333.75 44.3908C333.906 43.2641 333.984 42.2068 333.984 41.2188L336.376 41.4528ZM345.32 44.4688C345.736 44.9888 346.169 45.6475 346.62 46.4448C347.088 47.2421 347.538 48.0828 347.972 48.9668C348.422 49.8508 348.83 50.7088 349.194 51.5408C349.575 52.3728 349.87 53.0921 350.078 53.6988L348.076 54.6608C347.885 53.9848 347.616 53.2221 347.27 52.3728C346.94 51.5235 346.559 50.6655 346.126 49.7988C345.71 48.9148 345.268 48.0828 344.8 47.3028C344.349 46.5055 343.89 45.8468 343.422 45.3268L345.32 44.4688ZM327.016 47.1728C327.432 47.1901 327.822 47.1988 328.186 47.1988C328.55 47.1988 328.94 47.1901 329.356 47.1728C329.737 47.1555 330.231 47.1295 330.838 47.0948C331.462 47.0428 332.129 46.9908 332.84 46.9388C333.55 46.8695 334.261 46.8088 334.972 46.7568C335.682 46.6875 336.332 46.6355 336.922 46.6008C337.511 46.5488 337.979 46.5228 338.326 46.5228C339.106 46.5228 339.808 46.6528 340.432 46.9128C341.073 47.1555 341.584 47.5975 341.966 48.2388C342.364 48.8628 342.564 49.7641 342.564 50.9428C342.564 51.9655 342.512 53.0748 342.408 54.2708C342.304 55.4495 342.139 56.5761 341.914 57.6508C341.706 58.7081 341.42 59.6008 341.056 60.3288C340.657 61.1955 340.137 61.7675 339.496 62.0448C338.854 62.3395 338.109 62.4868 337.26 62.4868C336.757 62.4868 336.22 62.4435 335.648 62.3568C335.093 62.2875 334.608 62.2095 334.192 62.1228L333.854 59.9388C334.218 60.0601 334.599 60.1641 334.998 60.2508C335.396 60.3201 335.778 60.3808 336.142 60.4328C336.506 60.4675 336.8 60.4848 337.026 60.4848C337.511 60.4848 337.944 60.4068 338.326 60.2508C338.707 60.0775 339.036 59.7048 339.314 59.1328C339.591 58.5435 339.816 57.8068 339.99 56.9228C340.18 56.0388 340.319 55.0941 340.406 54.0888C340.492 53.0835 340.536 52.1128 340.536 51.1768C340.536 50.3795 340.423 49.7815 340.198 49.3828C339.972 48.9841 339.652 48.7155 339.236 48.5768C338.82 48.4381 338.334 48.3688 337.78 48.3688C337.346 48.3688 336.757 48.4035 336.012 48.4728C335.266 48.5248 334.469 48.5941 333.62 48.6808C332.77 48.7501 331.982 48.8281 331.254 48.9148C330.543 49.0015 329.988 49.0621 329.59 49.0968C329.278 49.1315 328.888 49.1835 328.42 49.2528C327.969 49.3048 327.579 49.3568 327.25 49.4088L327.016 47.1728ZM345.632 40.6988C345.857 40.9935 346.091 41.3575 346.334 41.7908C346.594 42.2068 346.854 42.6401 347.114 43.0908C347.374 43.5241 347.59 43.9141 347.764 44.2608L346.334 44.8848C346.178 44.5381 345.978 44.1481 345.736 43.7148C345.493 43.2815 345.242 42.8481 344.982 42.4148C344.722 41.9815 344.47 41.6001 344.228 41.2708L345.632 40.6988ZM348.492 39.6328C348.717 39.9621 348.968 40.3435 349.246 40.7768C349.523 41.2101 349.792 41.6435 350.052 42.0768C350.312 42.4928 350.52 42.8655 350.676 43.1948L349.272 43.8188C348.994 43.2468 348.656 42.6315 348.258 41.9728C347.859 41.2968 347.478 40.7161 347.114 40.2308L348.492 39.6328Z" fill="#575757"/>
<path d="M269.5 42.8052H280.212V44.5732H269.5V42.8052ZM274.024 39.8672H275.792V47.9532H274.024V39.8672ZM271.502 48.4472V52.0612H278.392V48.4472H271.502ZM269.994 46.8872H279.978V53.6212H269.994V46.8872ZM273.972 52.6332L275.272 53.2312C274.874 54.2365 274.371 55.2852 273.764 56.3772C273.175 57.4692 272.534 58.4919 271.84 59.4452C271.147 60.3985 270.445 61.1872 269.734 61.8112C269.648 61.5685 269.509 61.2739 269.318 60.9272C269.145 60.5805 268.98 60.3032 268.824 60.0952C269.466 59.5405 270.116 58.8559 270.774 58.0412C271.45 57.2092 272.066 56.3252 272.62 55.3892C273.192 54.4359 273.643 53.5172 273.972 52.6332ZM275.714 53.6992C275.922 53.8552 276.234 54.1239 276.65 54.5052C277.084 54.8865 277.534 55.2939 278.002 55.7272C278.488 56.1605 278.93 56.5679 279.328 56.9492C279.744 57.3305 280.039 57.6079 280.212 57.7812L279.016 59.2632C278.826 58.9859 278.54 58.6305 278.158 58.1972C277.794 57.7639 277.387 57.3219 276.936 56.8712C276.503 56.4032 276.087 55.9612 275.688 55.5452C275.29 55.1292 274.969 54.7999 274.726 54.5572L275.714 53.6992ZM274.128 47.8492H275.688V52.9712H275.792V63.7612H274.024V52.9712H274.128V47.8492ZM280.42 41.0372H292.952V42.7532H280.42V41.0372ZM283.306 50.7872V53.2832H290.118V50.7872H283.306ZM283.306 54.7392V57.3132H290.118V54.7392H283.306ZM283.306 46.8352V49.3052H290.118V46.8352H283.306ZM281.538 45.3012H291.99V58.8472H281.538V45.3012ZM285.646 41.8952L287.778 42.1812C287.57 42.9265 287.354 43.6805 287.128 44.4432C286.92 45.2059 286.712 45.8645 286.504 46.4192L284.84 46.0812C285.014 45.5092 285.178 44.8245 285.334 44.0272C285.49 43.2125 285.594 42.5019 285.646 41.8952ZM283.826 59.3152L285.516 60.3032C285.066 60.7365 284.528 61.1785 283.904 61.6292C283.28 62.0625 282.622 62.4612 281.928 62.8252C281.252 63.2065 280.585 63.5185 279.926 63.7612C279.77 63.5879 279.562 63.3712 279.302 63.1112C279.06 62.8512 278.834 62.6345 278.626 62.4612C279.285 62.2185 279.944 61.9239 280.602 61.5772C281.261 61.2305 281.876 60.8579 282.448 60.4592C283.02 60.0605 283.48 59.6792 283.826 59.3152ZM287.648 60.3812L289.104 59.4452C289.607 59.7572 290.136 60.1125 290.69 60.5112C291.262 60.9099 291.8 61.3085 292.302 61.7072C292.805 62.1059 293.221 62.4699 293.55 62.7992L292.016 63.8392C291.704 63.5099 291.297 63.1372 290.794 62.7212C290.309 62.3052 289.789 61.8892 289.234 61.4732C288.68 61.0572 288.151 60.6932 287.648 60.3812Z" fill="#E8601C"/>
<path d="M250.08 41.0385H262.092V42.6505H250.08V41.0385ZM249.768 48.2665H262.56V49.8785H249.768V48.2665ZM249.768 51.8805H262.508V53.4925H249.768V51.8805ZM250.522 60.8765H261.78V62.5145H250.522V60.8765ZM247.636 44.6525H264.562V46.2905H247.636V44.6525ZM249.508 55.4945H262.794V63.6585H260.844V57.0805H251.38V63.7365H249.508V55.4945ZM246.752 39.8945L248.572 40.4665C247.983 41.9225 247.29 43.3612 246.492 44.7825C245.712 46.2039 244.863 47.5385 243.944 48.7865C243.043 50.0345 242.116 51.1439 241.162 52.1145C241.093 51.9585 240.989 51.7592 240.85 51.5165C240.729 51.2739 240.599 51.0312 240.46 50.7885C240.322 50.5459 240.192 50.3465 240.07 50.1905C240.937 49.3585 241.786 48.3965 242.618 47.3045C243.45 46.1952 244.222 45.0165 244.932 43.7685C245.643 42.5032 246.25 41.2119 246.752 39.8945ZM244.048 46.6025L245.868 44.7565L245.92 44.7825V63.6585H244.048V46.6025Z" fill="#E8601C"/>
<path d="M205.047 63.112C204.492 62.4187 203.885 61.7254 203.227 61.032C202.568 60.3387 201.901 59.6714 201.225 59.03C200.566 58.3887 199.925 57.8167 199.301 57.314L200.991 55.832C201.615 56.3347 202.273 56.9154 202.967 57.574C203.66 58.2327 204.336 58.9087 204.995 59.602C205.671 60.2954 206.277 60.9627 206.815 61.604L205.047 63.112Z" fill="#575757"/>
<path d="M181.991 44.1045C182.702 44.2085 183.525 44.2952 184.461 44.3645C185.415 44.4165 186.394 44.4425 187.399 44.4425C188.422 44.4252 189.393 44.3905 190.311 44.3385C191.247 44.2692 192.036 44.1825 192.677 44.0785V46.1845C191.984 46.2539 191.169 46.3145 190.233 46.3665C189.315 46.4012 188.353 46.4185 187.347 46.4185C186.359 46.4185 185.397 46.4012 184.461 46.3665C183.525 46.3145 182.702 46.2539 181.991 46.1845V44.1045ZM183.005 54.6865C182.884 55.1545 182.789 55.5792 182.719 55.9605C182.65 56.3419 182.615 56.7145 182.615 57.0785C182.615 57.3732 182.676 57.6679 182.797 57.9625C182.936 58.2399 183.161 58.4912 183.473 58.7165C183.803 58.9245 184.253 59.0979 184.825 59.2365C185.397 59.3579 186.125 59.4185 187.009 59.4185C188.188 59.4185 189.297 59.3665 190.337 59.2625C191.377 59.1412 192.417 58.9679 193.457 58.7425L193.509 60.9265C192.695 61.0999 191.741 61.2385 190.649 61.3425C189.575 61.4292 188.361 61.4725 187.009 61.4725C184.825 61.4725 183.222 61.1259 182.199 60.4325C181.194 59.7392 180.691 58.7859 180.691 57.5725C180.691 57.1392 180.726 56.6799 180.795 56.1945C180.882 55.6919 180.995 55.1285 181.133 54.5045L183.005 54.6865ZM177.025 42.1025C176.991 42.2412 176.939 42.4232 176.869 42.6485C176.817 42.8565 176.757 43.0732 176.687 43.2985C176.635 43.5065 176.592 43.6885 176.557 43.8445C176.471 44.3299 176.367 44.8932 176.245 45.5345C176.124 46.1585 176.003 46.8345 175.881 47.5625C175.777 48.2732 175.673 49.0012 175.569 49.7465C175.483 50.4745 175.405 51.1852 175.335 51.8785C175.283 52.5719 175.257 53.2132 175.257 53.8025C175.257 54.4439 175.275 55.0505 175.309 55.6225C175.361 56.1945 175.422 56.8012 175.491 57.4425C175.647 57.0439 175.812 56.6192 175.985 56.1685C176.159 55.7179 176.332 55.2759 176.505 54.8425C176.696 54.3919 176.861 53.9932 176.999 53.6465L178.091 54.4785C177.866 55.1025 177.623 55.7872 177.363 56.5325C177.103 57.2779 176.869 57.9972 176.661 58.6905C176.471 59.3665 176.332 59.9039 176.245 60.3025C176.211 60.4932 176.176 60.7012 176.141 60.9265C176.107 61.1519 176.098 61.3339 176.115 61.4725C176.133 61.6112 176.141 61.7585 176.141 61.9145C176.159 62.0879 176.176 62.2439 176.193 62.3825L174.321 62.5125C174.061 61.5939 173.836 60.4152 173.645 58.9765C173.455 57.5205 173.359 55.9172 173.359 54.1665C173.359 53.2132 173.403 52.2425 173.489 51.2545C173.576 50.2492 173.689 49.2785 173.827 48.3425C173.966 47.3892 174.096 46.5225 174.217 45.7425C174.356 44.9452 174.46 44.2779 174.529 43.7405C174.581 43.4285 174.625 43.1165 174.659 42.8045C174.694 42.4752 174.711 42.1719 174.711 41.8945L177.025 42.1025Z" fill="#575757"/>
<path d="M156.902 52.3744H158.852V60.5384C158.852 60.9197 158.921 61.1711 159.06 61.2924C159.216 61.3964 159.536 61.4484 160.022 61.4484C160.143 61.4484 160.351 61.4484 160.646 61.4484C160.94 61.4484 161.261 61.4484 161.608 61.4484C161.972 61.4484 162.31 61.4484 162.622 61.4484C162.951 61.4484 163.185 61.4484 163.324 61.4484C163.653 61.4484 163.896 61.3617 164.052 61.1884C164.225 60.9977 164.338 60.6251 164.39 60.0704C164.459 59.5157 164.511 58.6751 164.546 57.5484C164.684 57.6524 164.858 57.7651 165.066 57.8864C165.291 57.9904 165.516 58.0857 165.742 58.1724C165.967 58.2417 166.166 58.3024 166.34 58.3544C166.27 59.6717 166.14 60.6944 165.95 61.4224C165.776 62.1331 165.49 62.6271 165.092 62.9044C164.71 63.1817 164.173 63.3204 163.48 63.3204C163.358 63.3204 163.124 63.3204 162.778 63.3204C162.431 63.3204 162.05 63.3204 161.634 63.3204C161.218 63.3204 160.836 63.3204 160.49 63.3204C160.16 63.3204 159.935 63.3204 159.814 63.3204C159.034 63.3204 158.436 63.2337 158.02 63.0604C157.604 62.9044 157.309 62.6184 157.136 62.2024C156.98 61.8037 156.902 61.2491 156.902 60.5384V52.3744ZM143.122 50.9964H165.976V52.8944H143.122V50.9964ZM147.412 43.8724H164.104V45.7444H147.412V43.8724ZM149.96 52.4524H151.988C151.866 53.7697 151.658 55.0091 151.364 56.1704C151.086 57.3317 150.662 58.3977 150.09 59.3684C149.518 60.3217 148.738 61.1797 147.75 61.9424C146.779 62.7051 145.531 63.3464 144.006 63.8664C143.936 63.6931 143.824 63.5024 143.668 63.2944C143.529 63.1037 143.382 62.9044 143.226 62.6964C143.07 62.5057 142.914 62.3497 142.758 62.2284C144.179 61.7777 145.34 61.2317 146.242 60.5904C147.143 59.9491 147.845 59.2124 148.348 58.3804C148.85 57.5311 149.214 56.6124 149.44 55.6244C149.682 54.6364 149.856 53.5791 149.96 52.4524ZM147.932 40.4144L149.908 40.8304C149.63 41.8184 149.292 42.8497 148.894 43.9244C148.512 44.9991 148.062 46.0477 147.542 47.0704C147.039 48.0757 146.484 48.9597 145.878 49.7224C145.739 49.6184 145.566 49.5144 145.358 49.4104C145.15 49.2891 144.942 49.1764 144.734 49.0724C144.543 48.9511 144.361 48.8644 144.188 48.8124C144.794 48.0671 145.332 47.2177 145.8 46.2644C146.285 45.2937 146.71 44.3057 147.074 43.3004C147.438 42.2777 147.724 41.3157 147.932 40.4144ZM153.548 39.8164H155.524V51.6204H153.548V39.8164Z" fill="#575757"/>
<path d="M124.454 41.1924C124.368 41.487 124.281 41.8424 124.195 42.2584C124.108 42.6744 124.039 43.0124 123.987 43.2724C123.865 43.8964 123.718 44.6244 123.545 45.4564C123.389 46.271 123.207 47.129 122.999 48.0304C122.808 48.9317 122.591 49.8157 122.349 50.6824C122.123 51.601 121.846 52.6064 121.517 53.6984C121.187 54.773 120.841 55.8564 120.477 56.9484C120.113 58.0404 119.74 59.0717 119.358 60.0424C118.977 61.013 118.622 61.8624 118.293 62.5904L116.005 61.8104C116.403 61.1344 116.802 60.3284 117.201 59.3924C117.617 58.439 118.015 57.425 118.396 56.3504C118.795 55.2757 119.159 54.2097 119.489 53.1524C119.835 52.0777 120.13 51.0897 120.372 50.1884C120.546 49.5817 120.711 48.9404 120.867 48.2644C121.023 47.5884 121.17 46.9297 121.309 46.2884C121.447 45.6297 121.56 45.0317 121.646 44.4944C121.75 43.9397 121.829 43.489 121.881 43.1424C121.933 42.7784 121.967 42.397 121.985 41.9984C122.002 41.5997 121.993 41.2617 121.959 40.9844L124.454 41.1924ZM118.683 45.5344C119.653 45.5344 120.693 45.491 121.802 45.4044C122.929 45.3004 124.073 45.153 125.235 44.9624C126.396 44.7717 127.514 44.5377 128.589 44.2604V46.3144C127.514 46.557 126.387 46.765 125.209 46.9384C124.03 47.1117 122.869 47.2504 121.725 47.3544C120.598 47.441 119.575 47.4844 118.657 47.4844C118.085 47.4844 117.556 47.4757 117.071 47.4584C116.585 47.4237 116.109 47.3977 115.641 47.3804L115.562 45.3524C116.187 45.4217 116.741 45.4737 117.227 45.5084C117.729 45.5257 118.215 45.5344 118.683 45.5344ZM126.898 49.1224C127.592 49.053 128.346 49.001 129.161 48.9664C129.993 48.9144 130.824 48.8884 131.656 48.8884C132.419 48.8884 133.182 48.9057 133.945 48.9404C134.725 48.975 135.461 49.0357 136.154 49.1224L136.103 51.0984C135.444 51.0117 134.742 50.9424 133.997 50.8904C133.251 50.821 132.497 50.7864 131.734 50.7864C130.92 50.7864 130.105 50.8124 129.29 50.8644C128.493 50.899 127.696 50.9597 126.898 51.0464V49.1224ZM127.445 55.4404C127.341 55.8564 127.254 56.2637 127.185 56.6624C127.115 57.061 127.08 57.4337 127.08 57.7804C127.08 58.0924 127.133 58.3957 127.237 58.6904C127.358 58.9677 127.575 59.219 127.887 59.4444C128.199 59.6697 128.641 59.8517 129.213 59.9904C129.802 60.129 130.556 60.1984 131.475 60.1984C132.324 60.1984 133.182 60.155 134.049 60.0684C134.915 59.9817 135.747 59.8517 136.544 59.6784L136.467 61.7844C135.773 61.8884 135.002 61.975 134.152 62.0444C133.303 62.1137 132.402 62.1484 131.449 62.1484C129.403 62.1484 127.835 61.8364 126.743 61.2124C125.651 60.571 125.104 59.609 125.104 58.3264C125.104 57.8237 125.139 57.321 125.209 56.8184C125.295 56.3157 125.39 55.7957 125.494 55.2584L127.445 55.4404Z" fill="#575757"/>
<path d="M88.9901 43.8482C90.8101 44.0562 92.5434 44.1775 94.1901 44.2122C95.8541 44.2468 97.3534 44.2035 98.6881 44.0822C99.7454 43.9782 100.794 43.8222 101.834 43.6142C102.891 43.3888 103.888 43.1288 104.824 42.8342L105.11 44.7062C104.261 44.9488 103.307 45.1742 102.25 45.3822C101.21 45.5902 100.17 45.7462 99.1301 45.8502C97.8128 45.9715 96.2788 46.0322 94.5281 46.0322C92.7948 46.0148 90.9921 45.9195 89.1201 45.7462L88.9901 43.8482ZM88.4961 49.1782C89.9694 49.3342 91.4254 49.4382 92.8641 49.4902C94.3028 49.5248 95.6634 49.5162 96.9461 49.4642C98.2288 49.4122 99.3728 49.3255 100.378 49.2042C101.626 49.0655 102.761 48.8835 103.784 48.6582C104.807 48.4328 105.665 48.2075 106.358 47.9822L106.67 49.9322C105.959 50.1228 105.127 50.3135 104.174 50.5042C103.221 50.6775 102.198 50.8335 101.106 50.9722C100.031 51.0935 98.8094 51.1888 97.4401 51.2582C96.0708 51.3102 94.6234 51.3275 93.0981 51.3102C91.5901 51.2755 90.0908 51.2148 88.6001 51.1282L88.4961 49.1782ZM97.3881 43.5102C97.2841 43.1115 97.1628 42.7215 97.0241 42.3402C96.9028 41.9415 96.7814 41.5602 96.6601 41.1962L98.8701 40.9102C98.9568 41.6382 99.0954 42.4008 99.2861 43.1982C99.4768 43.9782 99.6848 44.7495 99.9101 45.5122C100.135 46.2575 100.352 46.9335 100.56 47.5402C100.803 48.2162 101.089 48.9355 101.418 49.6982C101.747 50.4608 102.111 51.2148 102.51 51.9602C102.909 52.7055 103.333 53.4162 103.784 54.0922C103.923 54.2828 104.07 54.4735 104.226 54.6642C104.399 54.8375 104.573 55.0195 104.746 55.2102L103.68 56.7962C103.195 56.6575 102.623 56.5448 101.964 56.4582C101.305 56.3542 100.629 56.2675 99.9361 56.1982C99.2428 56.1115 98.5928 56.0335 97.9861 55.9642L98.1681 54.3782C98.8614 54.4475 99.5808 54.5255 100.326 54.6122C101.071 54.6988 101.652 54.7682 102.068 54.8202C101.34 53.6935 100.699 52.5322 100.144 51.3362C99.6068 50.1402 99.1474 49.0135 98.7661 47.9562C98.5581 47.3668 98.3674 46.8208 98.1941 46.3182C98.0381 45.7982 97.8908 45.3042 97.7521 44.8362C97.6308 44.3682 97.5094 43.9262 97.3881 43.5102ZM92.2661 54.7682C91.9541 55.2188 91.6941 55.6782 91.4861 56.1462C91.2781 56.6142 91.1741 57.1342 91.1741 57.7062C91.1741 58.7808 91.6594 59.5868 92.6301 60.1242C93.6181 60.6615 95.1348 60.9302 97.1801 60.9302C98.3934 60.9302 99.4941 60.8868 100.482 60.8002C101.47 60.7135 102.432 60.5748 103.368 60.3842L103.29 62.4642C102.389 62.6028 101.427 62.7068 100.404 62.7762C99.3814 62.8628 98.3154 62.9062 97.2061 62.9062C95.5074 62.9062 94.0601 62.7328 92.8641 62.3862C91.6854 62.0395 90.7841 61.5108 90.1601 60.8002C89.5534 60.0895 89.2414 59.1795 89.2241 58.0702C89.2068 57.3248 89.2934 56.6662 89.4841 56.0942C89.6921 55.5048 89.9434 54.9242 90.2381 54.3522L92.2661 54.7682Z" fill="#575757"/>
<path d="M58.7344 44.3906C59.237 44.3732 59.6877 44.3559 60.0864 44.3386C60.485 44.3039 60.8057 44.2779 61.0484 44.2606C61.4644 44.2086 62.0624 44.1479 62.8424 44.0786C63.6397 43.9919 64.5497 43.9052 65.5724 43.8186C66.595 43.7146 67.6957 43.6106 68.8744 43.5066C70.053 43.4026 71.2404 43.2986 72.4364 43.1946C73.3897 43.1079 74.291 43.0386 75.1404 42.9866C75.9897 42.9172 76.7784 42.8652 77.5064 42.8306C78.2344 42.7786 78.8844 42.7439 79.4564 42.7266V44.8066C78.971 44.7892 78.4164 44.7892 77.7924 44.8066C77.1684 44.8239 76.553 44.8672 75.9464 44.9366C75.3397 44.9886 74.811 45.0839 74.3604 45.2226C73.4417 45.5172 72.6097 45.9679 71.8644 46.5746C71.1364 47.1639 70.5124 47.8486 69.9924 48.6286C69.4724 49.3912 69.0737 50.1972 68.7964 51.0466C68.5364 51.8786 68.4064 52.6759 68.4064 53.4386C68.4064 54.4612 68.5797 55.3539 68.9264 56.1166C69.273 56.8619 69.741 57.4946 70.3304 58.0146C70.937 58.5346 71.6217 58.9592 72.3844 59.2886C73.1644 59.6179 73.979 59.8606 74.8284 60.0166C75.6777 60.1726 76.527 60.2679 77.3764 60.3026L76.6224 62.4606C75.669 62.4259 74.6984 62.2872 73.7104 62.0446C72.7397 61.8192 71.8124 61.4899 70.9284 61.0566C70.0444 60.6059 69.2557 60.0426 68.5624 59.3666C67.869 58.6906 67.323 57.9019 66.9244 57.0006C66.5257 56.0992 66.3264 55.0679 66.3264 53.9066C66.3264 52.5546 66.5604 51.3066 67.0284 50.1626C67.5137 49.0012 68.129 47.9872 68.8744 47.1206C69.6197 46.2539 70.391 45.5866 71.1884 45.1186C70.6337 45.1879 69.949 45.2659 69.1344 45.3526C68.3197 45.4392 67.4357 45.5346 66.4824 45.6386C65.5464 45.7252 64.6104 45.8292 63.6744 45.9506C62.7384 46.0719 61.8544 46.1932 61.0224 46.3146C60.2077 46.4186 59.523 46.5312 58.9684 46.6526L58.7344 44.3906Z" fill="#575757"/>
<path d="M47.7115 41.375C47.6769 41.6003 47.6509 41.843 47.6335 42.103C47.6335 42.3457 47.6335 42.6143 47.6335 42.909C47.6162 43.0997 47.6075 43.4117 47.6075 43.845C47.6249 44.2783 47.6335 44.7723 47.6335 45.327C47.6509 45.8643 47.6595 46.419 47.6595 46.991C47.6769 47.563 47.6855 48.0917 47.6855 48.577C47.6855 49.045 47.6855 49.4263 47.6855 49.721C47.6855 51.2117 47.6509 52.5983 47.5815 53.881C47.5295 55.1637 47.3389 56.3597 47.0095 57.469C46.6802 58.5783 46.1342 59.6097 45.3715 60.563C44.6262 61.499 43.5602 62.3743 42.1735 63.189L40.2755 61.707C40.6915 61.5337 41.1335 61.2997 41.6015 61.005C42.0869 60.7103 42.4855 60.407 42.7975 60.095C43.4909 59.4883 44.0369 58.8383 44.4355 58.145C44.8342 57.4517 45.1202 56.689 45.2935 55.857C45.4842 55.025 45.6055 54.1063 45.6575 53.101C45.7095 52.0957 45.7355 50.969 45.7355 49.721C45.7355 49.305 45.7269 48.7763 45.7095 48.135C45.6922 47.4763 45.6749 46.8003 45.6575 46.107C45.6402 45.3963 45.6229 44.755 45.6055 44.183C45.5882 43.611 45.5622 43.195 45.5275 42.935C45.5102 42.6403 45.4755 42.363 45.4235 42.103C45.3715 41.8257 45.3282 41.583 45.2935 41.375H47.7115ZM38.2215 46.757C38.6029 46.809 39.0275 46.861 39.4955 46.913C39.9635 46.965 40.4489 46.9997 40.9515 47.017C41.4715 47.0343 41.9569 47.043 42.4075 47.043C43.4822 47.043 44.5829 47.017 45.7095 46.965C46.8535 46.913 47.9542 46.8263 49.0115 46.705C50.0862 46.5837 51.0482 46.4277 51.8975 46.237V48.369C51.0655 48.4903 50.1209 48.603 49.0635 48.707C48.0235 48.811 46.9315 48.889 45.7875 48.941C44.6609 48.9757 43.5429 48.993 42.4335 48.993C42.0175 48.993 41.5495 48.9843 41.0295 48.967C40.5269 48.9497 40.0242 48.9323 39.5215 48.915C39.0362 48.8977 38.6029 48.8717 38.2215 48.837V46.757ZM34.5555 41.765C34.4862 42.0077 34.4082 42.2937 34.3215 42.623C34.2522 42.935 34.1829 43.2123 34.1135 43.455C33.9055 44.391 33.7062 45.431 33.5155 46.575C33.3249 47.719 33.1775 48.9063 33.0735 50.137C32.9695 51.3677 32.9349 52.581 32.9695 53.777C33.0042 54.973 33.1429 56.1083 33.3855 57.183C33.5762 56.6283 33.7929 55.987 34.0355 55.259C34.2955 54.531 34.5469 53.8463 34.7895 53.205L35.9075 53.881C35.6995 54.4703 35.4829 55.1377 35.2575 55.883C35.0322 56.611 34.8242 57.313 34.6335 57.989C34.4429 58.6477 34.3042 59.1937 34.2175 59.627C34.1655 59.8177 34.1222 60.0257 34.0875 60.251C34.0702 60.4763 34.0702 60.6583 34.0875 60.797C34.1049 60.9357 34.1135 61.083 34.1135 61.239C34.1309 61.395 34.1482 61.5423 34.1655 61.681L32.3975 61.889C32.2242 61.369 32.0249 60.667 31.7995 59.783C31.5915 58.899 31.4095 57.9283 31.2535 56.871C31.0975 55.7963 31.0195 54.7217 31.0195 53.647C31.0195 52.2257 31.0802 50.865 31.2015 49.565C31.3402 48.265 31.4875 47.069 31.6435 45.977C31.7995 44.885 31.9209 43.9837 32.0075 43.273C32.0595 42.961 32.0942 42.649 32.1115 42.337C32.1289 42.025 32.1375 41.7563 32.1375 41.531L34.5555 41.765Z" fill="#575757"/>
<path d="M16.016 39.7891H17.94V47.0951H16.016V39.7891ZM10.036 42.2591H23.998V43.8971H10.036V42.2591ZM10.972 46.2631H23.114V47.9271H10.972V46.2631ZM10.166 49.6951H24.05V54.3751H22.334V51.2811H11.83V54.3751H10.166V49.6951ZM18.278 53.1791H20.046V61.1351C20.046 61.4644 20.0807 61.6724 20.15 61.7591C20.2367 61.8457 20.41 61.8891 20.67 61.8891C20.7393 61.8891 20.8867 61.8891 21.112 61.8891C21.3373 61.8891 21.5713 61.8891 21.814 61.8891C22.0567 61.8891 22.2213 61.8891 22.308 61.8891C22.4813 61.8891 22.6113 61.8111 22.698 61.6551C22.802 61.5164 22.8713 61.2217 22.906 60.7711C22.9407 60.3031 22.9667 59.6097 22.984 58.6911C23.1747 58.8297 23.426 58.9684 23.738 59.1071C24.0673 59.2457 24.3533 59.3497 24.596 59.4191C24.5613 60.5111 24.466 61.3517 24.31 61.9411C24.1713 62.5477 23.9547 62.9637 23.66 63.1891C23.3827 63.4317 23.0013 63.5531 22.516 63.5531C22.4293 63.5531 22.2907 63.5531 22.1 63.5531C21.9093 63.5531 21.6927 63.5531 21.45 63.5531C21.2247 63.5531 21.0167 63.5531 20.826 63.5531C20.6353 63.5531 20.4967 63.5531 20.41 63.5531C19.838 63.5531 19.396 63.4751 19.084 63.3191C18.772 63.1804 18.5553 62.9377 18.434 62.5911C18.33 62.2444 18.278 61.7591 18.278 61.1351V53.1791ZM13.494 53.2051H15.262V54.8431C15.262 55.4844 15.2013 56.1951 15.08 56.9751C14.976 57.7377 14.7333 58.5264 14.352 59.3411C13.988 60.1384 13.4333 60.9184 12.688 61.6811C11.96 62.4437 10.972 63.1371 9.724 63.7611C9.568 63.5704 9.35133 63.3451 9.074 63.0851C8.814 62.8251 8.56267 62.6084 8.32 62.4351C9.48133 61.8804 10.4087 61.2737 11.102 60.6151C11.7953 59.9391 12.3067 59.2544 12.636 58.5611C12.9827 57.8677 13.208 57.2004 13.312 56.5591C13.4333 55.9177 13.494 55.3371 13.494 54.8171V53.2051ZM4.42 39.8151L6.136 40.4651C5.824 41.1064 5.47733 41.7737 5.096 42.4671C4.732 43.1604 4.35933 43.8364 3.978 44.4951C3.614 45.1364 3.26733 45.6997 2.938 46.1851L1.586 45.5871C1.91533 45.0844 2.25333 44.4951 2.6 43.8191C2.964 43.1431 3.302 42.4497 3.614 41.7391C3.94333 41.0284 4.212 40.3871 4.42 39.8151ZM7.332 42.7791L8.97 43.5591C8.38067 44.5124 7.722 45.5351 6.994 46.6271C6.266 47.7017 5.52933 48.7417 4.784 49.7471C4.056 50.7524 3.36267 51.6277 2.704 52.3731L1.508 51.6971C1.99333 51.1251 2.50467 50.4751 3.042 49.7471C3.57933 49.0017 4.108 48.2304 4.628 47.4331C5.148 46.6184 5.642 45.8124 6.11 45.0151C6.578 44.2177 6.98533 43.4724 7.332 42.7791ZM0.286 45.2491L1.3 44.0011C1.768 44.4171 2.236 44.8764 2.704 45.3791C3.18933 45.8817 3.63133 46.3757 4.03 46.8611C4.42867 47.3464 4.74067 47.7884 4.966 48.1871L3.874 49.6431C3.64867 49.2271 3.33667 48.7591 2.938 48.2391C2.55667 47.7191 2.132 47.1991 1.664 46.6791C1.196 46.1591 0.736667 45.6824 0.286 45.2491ZM6.318 48.7331L7.748 48.1611C8.112 48.7157 8.45867 49.3224 8.788 49.9811C9.11733 50.6397 9.412 51.2811 9.672 51.9051C9.94933 52.5117 10.1487 53.0491 10.27 53.5171L8.71 54.2451C8.606 53.7424 8.424 53.1791 8.164 52.5551C7.92133 51.9137 7.644 51.2637 7.332 50.6051C7.02 49.9291 6.682 49.3051 6.318 48.7331ZM0.052 51.3071C1.17867 51.2551 2.51333 51.1944 4.056 51.1251C5.616 51.0384 7.21067 50.9517 8.84 50.8651V52.5031C7.31467 52.6071 5.798 52.7111 4.29 52.8151C2.79933 52.9017 1.46467 52.9797 0.286 53.0491L0.052 51.3071ZM7.02 55.0251L8.45 54.6091C8.77933 55.3544 9.074 56.1691 9.334 57.0531C9.594 57.9197 9.76733 58.6737 9.854 59.3151L8.32 59.8091C8.268 59.1504 8.112 58.3791 7.852 57.4951C7.60933 56.5937 7.332 55.7704 7.02 55.0251ZM1.638 54.6871L3.276 54.9471C3.10267 56.1777 2.86 57.3911 2.548 58.5871C2.25333 59.7657 1.90667 60.7711 1.508 61.6031C1.404 61.5337 1.25667 61.4557 1.066 61.3691C0.875333 61.2651 0.684667 61.1697 0.494 61.0831C0.303333 60.9964 0.138667 60.9271 0 60.8751C0.433333 60.0777 0.78 59.1331 1.04 58.0411C1.3 56.9317 1.49933 55.8137 1.638 54.6871ZM4.394 52.0871H6.11V63.7351H4.394V52.0871Z" fill="#575757"/>
<path d="M232.324 1H217.324V16M302.324 1H317.324V16M317.324 86V101H302.324M232.324 101H217.324V86" stroke="#B4B1B1" stroke-width="2"/>
</svg>
