<svg width="22" height="22" viewBox="0 0 22 22" fill="none" xmlns="http://www.w3.org/2000/svg">
<path d="M8.23425 3.07649C7.70624 2.32877 6.97514 1.99184 6.19974 2.00015C5.46403 2.00753 4.74771 2.32231 4.14954 2.7414C3.53943 3.17094 3.0192 3.71564 2.61812 4.34483C2.23965 4.94393 1.96642 5.65195 2.00334 6.34335C2.1815 9.66929 4.05262 13.2232 6.68068 15.8532C9.30689 18.4803 12.8137 20.3062 16.3547 19.9573C17.0489 19.889 17.7052 19.5354 18.2415 19.0849C18.7963 18.6151 19.2495 18.0372 19.5736 17.3864C19.8874 16.7476 20.0748 16.011 19.9714 15.2938C19.8644 14.546 19.4462 13.8777 18.6772 13.4346C18.5179 13.3422 18.3604 13.2468 18.2046 13.1485C18.0662 13.0626 17.9185 12.9694 17.7394 12.8623C17.3736 12.6368 16.9876 12.4458 16.5864 12.2918C16.1738 12.1414 15.7021 12.0426 15.211 12.11C14.7024 12.1801 14.2298 12.4201 13.8208 12.8503C13.5061 13.1826 13.0427 13.286 12.391 13.0977C11.7282 12.9057 10.9823 12.4294 10.3343 11.785C9.68628 11.1426 9.19612 10.3912 8.98657 9.71268C8.7798 9.04066 8.87119 8.5468 9.19427 8.20617C9.63089 7.74647 9.86351 7.23507 9.91244 6.69413C9.96044 6.16796 9.82936 5.67318 9.64197 5.24117C9.36135 4.59592 8.88503 3.95436 8.5121 3.45404C8.41834 3.32895 8.32602 3.20278 8.23517 3.07557" fill="white"/>
</svg>
