<svg width="22" height="22" viewBox="0 0 22 22" fill="none" xmlns="http://www.w3.org/2000/svg">
<circle cx="11" cy="11" r="10.75" fill="#4884CE" stroke="#4884CE" stroke-width="0.5"/>
<rect width="12" height="12" transform="translate(17 17) rotate(-180)" fill="#4884CE"/>
<path d="M12.3408 13.6943L12.2637 13.6729L12.1924 13.6367L12.1289 13.5879L12.0771 13.5264L12.0381 13.4561L12.0146 13.3789C12.0094 13.3529 12.0069 13.3265 12.0068 13.2998C12.0068 13.246 12.0171 13.1921 12.0381 13.1426C12.058 13.0958 12.0882 13.0546 12.124 13.0186L12.1221 13.0176L14.0723 10.9971L12.1318 8.98535C12.091 8.94299 12.0599 8.89215 12.041 8.83691L12.0264 8.78027L12.0205 8.72168C12.0184 8.6634 12.0288 8.60489 12.0518 8.55078C12.0825 8.47865 12.1338 8.41728 12.1992 8.37402C12.2647 8.33073 12.3414 8.30762 12.4199 8.30762C12.4736 8.30764 12.5267 8.31883 12.5762 8.33984C12.6256 8.36087 12.6707 8.39101 12.708 8.42969L14.915 10.7188L14.916 10.7197C14.9875 10.7942 15.0273 10.8939 15.0273 10.9971C15.0272 11.1001 14.9873 11.1991 14.916 11.2734L14.915 11.2744L12.6982 13.5732L12.6973 13.5713C12.6626 13.6083 12.6221 13.6395 12.5762 13.6611L12.501 13.6875C12.4749 13.6939 12.4478 13.6982 12.4209 13.6992L12.3408 13.6943Z" fill="white" stroke="white" stroke-width="0.5"/>
<path d="M7.37305 11.3945C7.26714 11.3945 7.16575 11.3522 7.09082 11.2773C7.01581 11.2023 6.97363 11.1002 6.97363 10.9941C6.97374 10.8882 7.0159 10.7868 7.09082 10.7119C7.16576 10.637 7.26709 10.5948 7.37305 10.5947L14.627 10.5947C14.733 10.5947 14.8351 10.6369 14.9102 10.7119C14.9663 10.7681 15.0042 10.8392 15.0195 10.916L15.0273 10.9941L15.0195 11.0732C15.0041 11.15 14.9663 11.2212 14.9102 11.2773C14.8351 11.3524 14.733 11.3945 14.627 11.3945L7.37305 11.3945Z" fill="white" stroke="white" stroke-width="0.5"/>
</svg>
