<svg width="32" height="32" viewBox="0 0 32 32" fill="none" xmlns="http://www.w3.org/2000/svg">
<path d="M5.33464 26.6654C4.6013 26.6654 3.97375 26.4045 3.45197 25.8827C2.93019 25.3609 2.66886 24.7329 2.66797 23.9987V7.9987C2.66797 7.26537 2.9293 6.63781 3.45197 6.11603C3.97464 5.59425 4.60219 5.33292 5.33464 5.33203H26.668C27.4013 5.33203 28.0293 5.59336 28.552 6.11603C29.0746 6.6387 29.3355 7.26625 29.3346 7.9987V23.9987C29.3346 24.732 29.0737 25.36 28.552 25.8827C28.0302 26.4054 27.4022 26.6663 26.668 26.6654H5.33464ZM16.352 17.0494C16.4737 17.0156 16.5902 16.9654 16.7013 16.8987L26.1346 10.9987C26.3124 10.8876 26.4457 10.7489 26.5346 10.5827C26.6235 10.4165 26.668 10.2329 26.668 10.032C26.668 9.58759 26.4791 9.25425 26.1013 9.03203C25.7235 8.80981 25.3346 8.82092 24.9346 9.06537L16.0013 14.6654L7.06797 9.06537C6.66797 8.82092 6.27908 8.81559 5.9013 9.04937C5.52352 9.28314 5.33464 9.6107 5.33464 10.032C5.33464 10.2543 5.37908 10.4489 5.46797 10.616C5.55686 10.7831 5.69019 10.9107 5.86797 10.9987L15.3013 16.8987C15.4124 16.9654 15.5293 17.0156 15.652 17.0494C15.7746 17.0831 15.8911 17.0996 16.0013 17.0987C16.1115 17.0978 16.2284 17.0814 16.352 17.0494Z" fill="#4884CE"/>
</svg>
