<svg width="22" height="22" viewBox="0 0 22 22" fill="none" xmlns="http://www.w3.org/2000/svg">
<path d="M5.50078 4.95078C5.50078 4.51317 5.67462 4.09349 5.98405 3.78406C6.29349 3.47462 6.71317 3.30078 7.15078 3.30078H14.8508C15.2884 3.30078 15.7081 3.47462 16.0175 3.78406C16.3269 4.09349 16.5008 4.51317 16.5008 4.95078V7.70078H15.4008V4.95078C15.4008 4.80491 15.3428 4.66502 15.2397 4.56187C15.1365 4.45873 14.9967 4.40078 14.8508 4.40078H7.15078C7.00491 4.40078 6.86502 4.45873 6.76187 4.56187C6.65873 4.66502 6.60078 4.80491 6.60078 4.95078V8.80078H12.6508C12.2938 9.2768 12.1008 9.85576 12.1008 10.4508V17.0508C12.1008 17.6701 12.3054 18.241 12.6508 18.7008H4.95078C4.51317 18.7008 4.09349 18.5269 3.78406 18.2175C3.47462 17.9081 3.30078 17.4884 3.30078 17.0508V11.0008C3.30078 10.4173 3.53257 9.85773 3.94515 9.44515C4.35773 9.03257 4.9173 8.80078 5.50078 8.80078V4.95078ZM6.87578 11.6883C6.87578 11.5059 6.80335 11.3311 6.67442 11.2021C6.54549 11.0732 6.37062 11.0008 6.18828 11.0008C6.00594 11.0008 5.83108 11.0732 5.70215 11.2021C5.57321 11.3311 5.50078 11.5059 5.50078 11.6883C5.50078 11.8706 5.57321 12.0455 5.70215 12.1744C5.83108 12.3033 6.00594 12.3758 6.18828 12.3758C6.37062 12.3758 6.54549 12.3033 6.67442 12.1744C6.80335 12.0455 6.87578 11.8706 6.87578 11.6883ZM6.87578 14.1633C6.87578 13.9809 6.80335 13.8061 6.67442 13.6771C6.54549 13.5482 6.37062 13.4758 6.18828 13.4758C6.00594 13.4758 5.83108 13.5482 5.70215 13.6771C5.57321 13.8061 5.50078 13.9809 5.50078 14.1633C5.50078 14.3456 5.57321 14.5205 5.70215 14.6494C5.83108 14.7783 6.00594 14.8508 6.18828 14.8508C6.37062 14.8508 6.54549 14.7783 6.67442 14.6494C6.80335 14.5205 6.87578 14.3456 6.87578 14.1633ZM8.66328 13.6133C8.48095 13.6133 8.30608 13.6857 8.17715 13.8146C8.04821 13.9436 7.97578 14.1184 7.97578 14.3008C7.97578 14.4831 8.04821 14.658 8.17715 14.7869C8.30608 14.9158 8.48095 14.9883 8.66328 14.9883C8.84562 14.9883 9.02049 14.9158 9.14942 14.7869C9.27835 14.658 9.35078 14.4831 9.35078 14.3008C9.35078 14.1184 9.27835 13.9436 9.14942 13.8146C9.02049 13.6857 8.84562 13.6133 8.66328 13.6133ZM9.35078 11.6883C9.35078 11.5059 9.27835 11.3311 9.14942 11.2021C9.02049 11.0732 8.84562 11.0008 8.66328 11.0008C8.48095 11.0008 8.30608 11.0732 8.17715 11.2021C8.04821 11.3311 7.97578 11.5059 7.97578 11.6883C7.97578 11.8706 8.04821 12.0455 8.17715 12.1744C8.30608 12.3033 8.48095 12.3758 8.66328 12.3758C8.84562 12.3758 9.02049 12.3033 9.14942 12.1744C9.27835 12.0455 9.35078 11.8706 9.35078 11.6883ZM14.8508 8.80078C14.4132 8.80078 13.9935 8.97462 13.6841 9.28405C13.3746 9.59349 13.2008 10.0132 13.2008 10.4508V17.0508C13.2008 17.4884 13.3746 17.9081 13.6841 18.2175C13.9935 18.5269 14.4132 18.7008 14.8508 18.7008H17.0508C17.4884 18.7008 17.9081 18.5269 18.2175 18.2175C18.5269 17.9081 18.7008 17.4884 18.7008 17.0508V10.4508C18.7008 10.0132 18.5269 9.59349 18.2175 9.28405C17.9081 8.97462 17.4884 8.80078 17.0508 8.80078H14.8508Z" fill="white"/>
</svg>
