<svg width="22" height="22" viewBox="0 0 22 22" fill="none" xmlns="http://www.w3.org/2000/svg">
<circle cx="11" cy="11" r="10.5" stroke="#4884CE"/>
<path d="M12.3408 13.6924L12.2637 13.6709L12.1924 13.6348L12.1289 13.5859L12.0771 13.5244L12.0381 13.4541L12.0146 13.377C12.0094 13.351 12.0069 13.3245 12.0068 13.2979C12.0068 13.2441 12.0171 13.1901 12.0381 13.1406C12.058 13.0938 12.0882 13.0527 12.124 13.0166L12.1221 13.0156L14.0723 10.9951L12.1318 8.9834C12.091 8.94103 12.0599 8.89019 12.041 8.83496L12.0264 8.77832L12.0205 8.71973C12.0184 8.66145 12.0288 8.60293 12.0518 8.54883C12.0825 8.4767 12.1338 8.41532 12.1992 8.37207C12.2647 8.32878 12.3414 8.30566 12.4199 8.30566C12.4736 8.30568 12.5267 8.31688 12.5762 8.33789C12.6256 8.35892 12.6707 8.38905 12.708 8.42773L14.915 10.7168L14.916 10.7178C14.9875 10.7922 15.0273 10.8919 15.0273 10.9951C15.0272 11.0982 14.9873 11.1971 14.916 11.2715L14.915 11.2725L12.6982 13.5713L12.6973 13.5693C12.6626 13.6064 12.6221 13.6376 12.5762 13.6592L12.501 13.6855C12.4749 13.6919 12.4478 13.6963 12.4209 13.6973L12.3408 13.6924Z" fill="#4884CE" stroke="#4884CE" stroke-width="0.5"/>
<path d="M7.37305 11.3945C7.26714 11.3945 7.16575 11.3522 7.09082 11.2773C7.01581 11.2023 6.97363 11.1002 6.97363 10.9941C6.97374 10.8882 7.0159 10.7868 7.09082 10.7119C7.16576 10.637 7.26709 10.5948 7.37305 10.5947L14.627 10.5947C14.733 10.5947 14.8351 10.6369 14.9102 10.7119C14.9663 10.7681 15.0042 10.8392 15.0195 10.916L15.0273 10.9941L15.0195 11.0732C15.0041 11.15 14.9663 11.2212 14.9102 11.2773C14.8351 11.3524 14.733 11.3945 14.627 11.3945L7.37305 11.3945Z" fill="#4884CE" stroke="#4884CE" stroke-width="0.5"/>
</svg>
