<svg width="303" height="56" viewBox="0 0 303 56" fill="none" xmlns="http://www.w3.org/2000/svg">
<path d="M10.2572 53.6345C11.2973 54.9259 11.4767 55.1412 11.9788 55.6434H8.78665C8.53558 55.1771 8.10518 54.4954 7.71065 53.9932L4.3033 49.5448L2.43823 51.2667V53.5986C2.43823 54.5313 2.43823 54.9618 2.5817 55.6434H0.0351562C0.142757 54.9259 0.178623 54.4237 0.178623 53.5986V45.0605C0.178623 44.1995 0.178623 43.6972 0.0351562 43.0156H2.5817C2.4741 43.5537 2.43823 44.1636 2.43823 45.0605V48.7555L6.81398 44.5582C7.49545 43.9125 7.81825 43.5537 8.14105 43.0156H11.4049C10.9028 43.482 10.3289 43.9842 9.57572 44.7017L5.88144 48.1815L10.2572 53.6345Z" fill="#144380" stroke="#231815" stroke-width="0.05" stroke-linejoin="round"/>
<path d="M23.0977 55.6434C22.9901 55.1053 22.8108 54.4237 22.6315 53.9932L21.95 52.2712H16.4624L15.7809 53.9932C15.4581 54.7466 15.3864 54.9977 15.2788 55.6434H12.4453C12.6964 55.2129 13.055 54.4954 13.342 53.778L17.108 44.63C17.4308 43.8407 17.5743 43.4461 17.646 43.0156H20.6229C20.6947 43.4102 20.8023 43.6614 21.1968 44.63L24.9987 53.778C25.4291 54.7824 25.6443 55.2488 25.8954 55.6434H23.0619H23.0977ZM19.4752 45.7062C19.4752 45.7062 19.3676 45.3475 19.1524 44.8093C18.9611 45.3116 18.8535 45.6105 18.8296 45.7062L17.0363 50.4058H21.3044L19.4752 45.7062Z" fill="#144380" stroke="#231815" stroke-width="0.05" stroke-linejoin="round"/>
<path d="M31.4901 53.5617C31.4901 54.4227 31.4901 54.9608 31.6336 55.6424H29.0512C29.1588 54.9608 29.1946 54.4227 29.1946 53.5617V44.8801H26.8633C25.859 44.8801 25.1058 44.8801 24.4961 44.9877V42.8711C25.1058 42.9428 25.859 42.9787 26.8274 42.9787H33.6421C34.8616 42.9787 35.5072 42.9787 36.1528 42.8711V44.9877C35.5072 44.9159 34.8616 44.8801 33.6421 44.8801H31.4901V53.5617Z" fill="#144380" stroke="#231815" stroke-width="0.05" stroke-linejoin="round"/>
<path d="M39.7053 51.6959C39.777 52.4134 39.8846 52.7363 40.1715 53.095C40.6737 53.7049 41.5704 54.0277 42.6822 54.0277C44.4038 54.0277 45.444 53.3102 45.444 52.1264C45.444 51.4806 45.1212 50.9425 44.5832 50.6555C44.081 50.4044 43.9734 50.3685 41.6062 49.8663C40.315 49.5793 39.6335 49.3282 39.0238 48.8977C38.163 48.2519 37.6967 47.391 37.6967 46.3147C37.6967 44.0905 39.6335 42.6914 42.5746 42.6914C44.5473 42.6914 46.0178 43.2654 46.8428 44.3058C47.2732 44.8439 47.4884 45.3102 47.6677 46.1354L45.1929 46.4223C45.0853 45.8842 44.9777 45.5972 44.6908 45.3102C44.2604 44.808 43.5072 44.5569 42.5388 44.5569C41.0323 44.5569 40.0281 45.2385 40.0281 46.2789C40.0281 46.9605 40.4226 47.391 41.2117 47.7138C41.6062 47.8573 41.7138 47.8932 43.6506 48.2878C45.0136 48.5748 45.8385 48.8618 46.4482 49.2564C47.4166 49.938 47.8829 50.799 47.8829 51.9829C47.8829 53.095 47.4884 54.0277 46.8069 54.6735C45.9102 55.4986 44.5473 55.8932 42.6822 55.8932C41.2834 55.8932 39.8846 55.5703 39.0597 55.0681C38.3782 54.6376 37.8761 54.0277 37.5533 53.2744C37.4098 52.9156 37.3381 52.5928 37.2305 51.947L39.7053 51.6959Z" fill="#144380" stroke="#231815" stroke-width="0.05" stroke-linejoin="round"/>
<path d="M61.7977 42.978C61.6901 43.552 61.6542 44.126 61.6542 45.1305V50.7628C61.6542 54.0632 59.5381 55.8928 55.8079 55.8928C53.907 55.8928 52.3289 55.3547 51.3605 54.3861C50.4997 53.5251 50.0692 52.3054 50.0692 50.7269V45.1305C50.0692 44.1619 50.0692 43.5161 49.9258 42.9421H52.4723C52.3647 43.4802 52.3289 44.0901 52.3289 45.1305V50.7269C52.3289 52.8793 53.5125 53.9915 55.8438 53.9915C58.1751 53.9915 59.3229 52.8793 59.3229 50.691V45.0946C59.3229 44.0901 59.3229 43.5161 59.1794 42.9062H61.726L61.7977 42.978Z" fill="#144380" stroke="#231815" stroke-width="0.05" stroke-linejoin="round"/>
<path d="M70.4784 55.6402C70.4067 55.138 70.1197 54.3846 69.7252 53.4878L67.2504 48.0349C66.9276 47.3174 66.7841 46.8869 66.3896 45.5954C66.4613 46.4205 66.533 47.7479 66.533 48.1066V53.3084C66.533 54.3846 66.533 54.9945 66.6765 55.6402H64.2734C64.381 54.9945 64.4169 54.3846 64.4169 53.3084V45.3443C64.4169 44.3039 64.4169 43.6582 64.2734 42.9766H67.4297C67.5373 43.5506 67.7884 44.1963 68.0753 44.8779L71.5544 52.7344L75.0335 44.8779C75.3921 44.0887 75.5356 43.5864 75.6432 42.9766H78.7995C78.6919 43.7299 78.656 44.268 78.656 45.3443V53.3084C78.656 54.4564 78.656 55.0304 78.7995 55.6402H76.3964C76.504 54.9945 76.5399 54.4205 76.5399 53.3084V48.0349C76.6116 46.6716 76.6475 45.8465 76.6833 45.5954C76.4681 46.4564 76.1453 47.3532 75.8943 47.9272L73.3119 53.5236C72.9532 54.277 72.6663 55.1739 72.5587 55.6402H70.5501H70.4784Z" fill="#144380" stroke="#231815" stroke-width="0.05" stroke-linejoin="round"/>
<path d="M83.8214 42.9766C83.7138 43.5864 83.6779 44.0887 83.6779 45.0214V53.5595C83.6779 54.4923 83.6779 54.9945 83.8214 55.6044H81.2031C81.3107 54.9945 81.3466 54.4923 81.3466 53.5595V45.0214C81.3466 44.0528 81.3466 43.6223 81.2031 42.9766H83.8214Z" fill="#144380" stroke="#231815" stroke-width="0.05" stroke-linejoin="round"/>
<path d="M73.9932 0V19.2646L57.4944 0H26.0751L9.57643 19.3004V0H0V40.2511H9.64816V22.2422L27.187 40.2152L37.5525 40.1435V40.2152H45.9095V40.1435L56.4184 40.2152L73.9573 22.2422V40.2511H83.5696V0H73.9573H73.9932ZM18.7225 20.9507L31.6345 7.28251H37.5166V39.6771L18.6866 20.9507H18.7225ZM45.9095 39.8206V7.28251H51.971L64.883 20.9507L45.9095 39.8206Z" fill="#144380"/>
<path d="M291.581 34.7963H302.921V36.6563H291.581V34.7963ZM292.381 25.0363H302.481V26.8763H292.381V25.0363ZM296.461 18.8163H298.401V35.6963H296.461V18.8163ZM284.501 22.3963H291.101V24.1163H284.501V22.3963ZM287.541 28.7363L289.421 26.4963V37.2363H287.541V28.7363ZM287.541 18.6562H289.421V23.2162H287.541V18.6562ZM289.221 27.0163C289.408 27.1363 289.661 27.3363 289.981 27.6163C290.315 27.8963 290.668 28.2029 291.041 28.5363C291.428 28.8563 291.775 29.1563 292.081 29.4363C292.401 29.7029 292.635 29.9029 292.781 30.0363L291.621 31.5763C291.435 31.3363 291.195 31.0563 290.901 30.7363C290.608 30.4029 290.288 30.0629 289.941 29.7163C289.608 29.3696 289.281 29.0429 288.961 28.7363C288.655 28.4163 288.395 28.1629 288.181 27.9763L289.221 27.0163ZM290.421 22.3963H290.781L291.141 22.3163L292.201 23.0162C291.695 24.2696 291.041 25.4696 290.241 26.6163C289.441 27.7629 288.561 28.8029 287.601 29.7363C286.655 30.6563 285.695 31.4229 284.721 32.0363C284.668 31.8629 284.581 31.6629 284.461 31.4363C284.355 31.2096 284.241 30.9896 284.121 30.7763C284.001 30.5629 283.888 30.4029 283.781 30.2963C284.701 29.7763 285.595 29.1229 286.461 28.3363C287.328 27.5363 288.108 26.6563 288.801 25.6963C289.495 24.7229 290.035 23.7429 290.421 22.7562V22.3963Z" fill="black"/>
<path d="M265.342 34.6958C266.529 34.6691 267.896 34.6291 269.443 34.5758C271.003 34.5224 272.649 34.4624 274.383 34.3958C276.129 34.3291 277.863 34.2624 279.583 34.1958L279.503 35.9158C277.849 36.0091 276.176 36.0958 274.483 36.1758C272.803 36.2558 271.196 36.3291 269.663 36.3958C268.143 36.4624 266.789 36.5158 265.603 36.5558L265.342 34.6958ZM265.202 28.6158H281.803V30.3958H265.202V28.6158ZM268.683 24.7758H278.163V26.5358H268.683V24.7758ZM270.423 29.7758L272.562 30.3558C272.256 30.9958 271.929 31.6558 271.583 32.3358C271.249 33.0024 270.909 33.6491 270.562 34.2758C270.216 34.8891 269.889 35.4424 269.583 35.9358L267.903 35.3758C268.209 34.8558 268.522 34.2758 268.842 33.6358C269.162 32.9824 269.463 32.3158 269.743 31.6358C270.023 30.9558 270.249 30.3358 270.423 29.7758ZM275.283 31.8558L276.923 30.9958C277.536 31.5024 278.143 32.0624 278.743 32.6758C279.343 33.2891 279.889 33.9024 280.383 34.5158C280.889 35.1291 281.296 35.6891 281.603 36.1958L279.863 37.2558C279.569 36.7491 279.176 36.1758 278.683 35.5358C278.189 34.9091 277.643 34.2758 277.043 33.6358C276.456 32.9824 275.869 32.3891 275.283 31.8558ZM273.383 20.4958C272.849 21.2824 272.156 22.0891 271.303 22.9158C270.449 23.7291 269.496 24.5091 268.443 25.2558C267.403 25.9891 266.316 26.6358 265.183 27.1958C265.116 27.0358 265.016 26.8624 264.883 26.6758C264.763 26.4758 264.629 26.2891 264.482 26.1158C264.336 25.9291 264.196 25.7624 264.062 25.6158C265.223 25.0958 266.336 24.4491 267.403 23.6758C268.469 22.9024 269.429 22.0824 270.283 21.2158C271.136 20.3491 271.816 19.5024 272.323 18.6758H274.283C274.816 19.4224 275.416 20.1291 276.083 20.7958C276.749 21.4624 277.463 22.0824 278.223 22.6558C278.983 23.2291 279.756 23.7424 280.543 24.1958C281.343 24.6491 282.143 25.0291 282.943 25.3358C282.716 25.5758 282.496 25.8558 282.283 26.1758C282.083 26.4824 281.896 26.7758 281.723 27.0558C280.696 26.5624 279.656 25.9624 278.603 25.2558C277.549 24.5491 276.569 23.7891 275.663 22.9758C274.756 22.1491 273.996 21.3224 273.383 20.4958Z" fill="black"/>
<path d="M257.66 19.7748L258.92 18.7148C259.253 18.9415 259.593 19.1948 259.94 19.4748C260.3 19.7548 260.64 20.0348 260.96 20.3148C261.28 20.5815 261.533 20.8282 261.72 21.0548L260.4 22.2348C260.213 21.9948 259.967 21.7282 259.66 21.4348C259.367 21.1415 259.04 20.8482 258.68 20.5548C258.333 20.2615 257.993 20.0015 257.66 19.7748ZM244.5 22.2348H262.42V24.0948H244.5V22.2348ZM245.22 26.7748H253.98V28.6148H245.22V26.7748ZM248.58 27.7948H250.46V34.7748H248.58V27.7948ZM244.56 34.7548C245.36 34.6082 246.3 34.4348 247.38 34.2348C248.473 34.0215 249.633 33.7948 250.86 33.5548C252.087 33.3148 253.307 33.0748 254.52 32.8348L254.66 34.5148C253.553 34.7815 252.427 35.0415 251.28 35.2948C250.133 35.5348 249.033 35.7682 247.98 35.9948C246.927 36.2348 245.967 36.4482 245.1 36.6348L244.56 34.7548ZM254.54 18.7348H256.58C256.553 20.4948 256.593 22.1948 256.7 23.8348C256.807 25.4615 256.973 26.9682 257.2 28.3548C257.427 29.7415 257.7 30.9548 258.02 31.9948C258.34 33.0215 258.7 33.8215 259.1 34.3948C259.5 34.9682 259.92 35.2548 260.36 35.2548C260.613 35.2548 260.8 34.9615 260.92 34.3748C261.053 33.7882 261.147 32.8482 261.2 31.5548C261.413 31.7682 261.68 31.9748 262 32.1748C262.32 32.3748 262.613 32.5282 262.88 32.6348C262.773 33.8348 262.62 34.7682 262.42 35.4348C262.22 36.1015 261.94 36.5682 261.58 36.8348C261.22 37.1015 260.76 37.2348 260.2 37.2348C259.507 37.2348 258.887 37.0015 258.34 36.5348C257.793 36.0682 257.313 35.4082 256.9 34.5548C256.487 33.7015 256.127 32.7015 255.82 31.5548C255.527 30.3948 255.287 29.1282 255.1 27.7548C254.913 26.3815 254.773 24.9348 254.68 23.4148C254.6 21.8815 254.553 20.3215 254.54 18.7348Z" fill="black"/>
<path d="M231.62 27.1963H242.56V28.9163H231.62V27.1963ZM233.6 22.2762H241.94V23.9963H233.6V22.2762ZM236.24 18.6562H238.08V37.2163H236.24V18.6562ZM235.62 28.0563L237.12 28.5163C236.734 29.5563 236.254 30.5696 235.68 31.5563C235.12 32.5296 234.5 33.4229 233.82 34.2363C233.14 35.0363 232.427 35.7096 231.68 36.2563C231.574 36.1096 231.447 35.9429 231.3 35.7563C231.154 35.5696 231 35.3963 230.84 35.2363C230.68 35.0629 230.527 34.9163 230.38 34.7963C231.114 34.3563 231.807 33.7829 232.46 33.0763C233.127 32.3563 233.734 31.5629 234.28 30.6963C234.827 29.8296 235.274 28.9496 235.62 28.0563ZM238.76 28.1563C239.054 28.9696 239.434 29.7896 239.9 30.6163C240.367 31.4429 240.874 32.2029 241.42 32.8963C241.98 33.5896 242.547 34.1696 243.12 34.6363C242.974 34.7429 242.814 34.8829 242.64 35.0563C242.467 35.2163 242.3 35.3896 242.14 35.5763C241.98 35.7629 241.847 35.9429 241.74 36.1163C241.167 35.5563 240.607 34.8696 240.06 34.0563C239.527 33.2429 239.027 32.3629 238.56 31.4163C238.107 30.4696 237.72 29.5229 237.4 28.5763L238.76 28.1563ZM233.22 19.6162L234.96 19.9163C234.76 21.2229 234.474 22.4763 234.1 23.6763C233.727 24.8763 233.274 25.8963 232.74 26.7363C232.634 26.6429 232.487 26.5363 232.3 26.4163C232.127 26.2963 231.94 26.1763 231.74 26.0563C231.554 25.9363 231.387 25.8496 231.24 25.7963C231.76 25.0363 232.18 24.1096 232.5 23.0162C232.82 21.9229 233.06 20.7896 233.22 19.6162ZM224.42 22.4562H231.46V24.2163H224.42V22.4562ZM227.18 18.6562H229.02V37.1963H227.18V18.6562ZM227.14 23.6763L228.22 24.0963C228.06 24.9096 227.867 25.7496 227.64 26.6163C227.414 27.4829 227.154 28.3363 226.86 29.1763C226.58 30.0029 226.274 30.7763 225.94 31.4963C225.62 32.2163 225.28 32.8296 224.92 33.3363C224.867 33.1629 224.787 32.9629 224.68 32.7363C224.574 32.4963 224.454 32.2696 224.32 32.0563C224.2 31.8296 224.087 31.6363 223.98 31.4763C224.314 31.0363 224.64 30.5163 224.96 29.9163C225.28 29.3029 225.58 28.6496 225.86 27.9563C226.14 27.2496 226.387 26.5296 226.6 25.7963C226.827 25.0629 227.007 24.3563 227.14 23.6763ZM228.94 24.7363C229.06 24.8829 229.234 25.1363 229.46 25.4963C229.7 25.8429 229.954 26.2296 230.22 26.6562C230.5 27.0829 230.754 27.4763 230.98 27.8363C231.207 28.1963 231.367 28.4563 231.46 28.6163L230.34 29.9163C230.234 29.6363 230.08 29.2963 229.88 28.8963C229.68 28.4829 229.467 28.0563 229.24 27.6163C229.014 27.1629 228.794 26.7429 228.58 26.3563C228.367 25.9696 228.194 25.6563 228.06 25.4163L228.94 24.7363Z" fill="black"/>
<path d="M204.642 30.9567H222.302V32.5367H204.642V30.9567ZM204.722 22.0967H222.242V23.6767H204.722V22.0967ZM205.522 25.5767H221.502V27.0967H205.522V25.5767ZM206.522 28.3167H220.542V29.7167H206.522V28.3167ZM212.482 26.3167H214.342V37.2167H212.482V26.3167ZM210.682 18.6367H212.462V22.8367H210.682V18.6367ZM214.442 18.6367H216.242V22.7367H214.442V18.6367ZM212.002 31.6167L213.522 32.3167C212.895 32.9967 212.135 33.6367 211.242 34.2367C210.349 34.8367 209.389 35.3634 208.362 35.8167C207.335 36.2834 206.322 36.6567 205.322 36.9367C205.229 36.7634 205.109 36.5767 204.962 36.3767C204.829 36.1901 204.682 36.0034 204.522 35.8167C204.375 35.6301 204.229 35.4701 204.082 35.3367C205.082 35.1234 206.082 34.8301 207.082 34.4567C208.082 34.0834 209.015 33.6567 209.882 33.1767C210.749 32.6834 211.455 32.1634 212.002 31.6167ZM214.822 31.5767C215.249 31.9901 215.755 32.3901 216.342 32.7767C216.942 33.1634 217.595 33.5234 218.302 33.8567C219.009 34.1767 219.742 34.4567 220.502 34.6967C221.275 34.9367 222.049 35.1301 222.822 35.2767C222.689 35.4101 222.535 35.5767 222.362 35.7767C222.202 35.9767 222.049 36.1834 221.902 36.3967C221.769 36.6101 221.655 36.8034 221.562 36.9767C220.775 36.7634 219.995 36.4967 219.222 36.1767C218.449 35.8701 217.702 35.5101 216.982 35.0967C216.275 34.6834 215.609 34.2367 214.982 33.7567C214.369 33.2634 213.829 32.7367 213.362 32.1767L214.822 31.5767ZM219.062 18.8567L221.022 19.3567C220.715 19.8901 220.395 20.4234 220.062 20.9567C219.742 21.4901 219.449 21.9501 219.182 22.3367L217.642 21.8567C217.815 21.5767 217.989 21.2634 218.162 20.9167C218.335 20.5567 218.502 20.1967 218.662 19.8367C218.822 19.4767 218.955 19.1501 219.062 18.8567ZM216.402 23.0967L218.382 23.5767C218.129 24.0434 217.875 24.4967 217.622 24.9367C217.369 25.3634 217.129 25.7301 216.902 26.0367L215.322 25.5767C215.509 25.2167 215.702 24.8034 215.902 24.3367C216.115 23.8701 216.282 23.4567 216.402 23.0967ZM206.242 19.3567L207.862 18.7967C208.195 19.2367 208.515 19.7301 208.822 20.2767C209.129 20.8234 209.355 21.3034 209.502 21.7167L207.782 22.3367C207.662 21.9367 207.455 21.4567 207.162 20.8967C206.869 20.3367 206.562 19.8234 206.242 19.3567ZM208.822 23.7567L210.642 23.4367C210.855 23.7434 211.055 24.0901 211.242 24.4767C211.429 24.8634 211.562 25.1967 211.642 25.4767L209.742 25.8367C209.675 25.5567 209.555 25.2234 209.382 24.8367C209.209 24.4367 209.022 24.0767 208.822 23.7567Z" fill="black"/>
<path d="M185.482 20.8359H201.462V22.7959H185.482V20.8359ZM184.422 33.8559H202.522V35.7559H184.422V33.8559ZM192.322 21.8759H194.442V34.6159H192.322V21.8759Z" fill="black"/>
<path d="M171.702 19.5353H180.942V21.0353H171.702V19.5353ZM171.422 25.1753H181.302V26.6953H171.422V25.1753ZM171.422 27.9953H181.242V29.4953H171.422V27.9953ZM172.162 34.8153H180.542V36.3353H172.162V34.8153ZM169.802 22.3353H182.762V23.8953H169.802V22.3353ZM171.182 30.7953H181.522V37.1553H179.622V32.2953H172.982V37.2153H171.182V30.7953ZM168.782 18.6953L170.542 19.2753C170.088 20.3953 169.555 21.5153 168.942 22.6353C168.342 23.742 167.688 24.7886 166.982 25.7753C166.275 26.7486 165.542 27.6086 164.782 28.3553C164.728 28.1953 164.642 27.9953 164.522 27.7553C164.402 27.5153 164.275 27.2753 164.142 27.0353C164.008 26.7953 163.882 26.5953 163.762 26.4353C164.428 25.8086 165.068 25.0886 165.682 24.2753C166.308 23.4486 166.888 22.562 167.422 21.6153C167.955 20.6553 168.408 19.682 168.782 18.6953ZM166.762 24.0153L168.562 22.2353L168.582 22.2553V37.1553H166.762V24.0153Z" fill="black"/>
<path d="M148.761 26.4977V33.7177H146.941V28.2577H144.201V26.4977H148.761ZM148.761 32.9577C149.201 33.6643 149.815 34.1843 150.601 34.5177C151.388 34.851 152.335 35.0443 153.441 35.0977C154.015 35.111 154.708 35.1243 155.521 35.1377C156.348 35.1377 157.208 35.1377 158.101 35.1377C159.008 35.1243 159.881 35.1043 160.721 35.0777C161.575 35.0377 162.328 34.9977 162.981 34.9577C162.915 35.091 162.835 35.271 162.741 35.4977C162.661 35.711 162.588 35.931 162.521 36.1577C162.455 36.3977 162.401 36.611 162.361 36.7977C161.788 36.8243 161.108 36.8443 160.321 36.8577C159.548 36.8843 158.741 36.8977 157.901 36.8977C157.061 36.911 156.255 36.911 155.481 36.8977C154.708 36.8843 154.028 36.871 153.441 36.8577C152.188 36.8043 151.115 36.5977 150.221 36.2377C149.328 35.8777 148.575 35.3043 147.961 34.5177C147.481 34.9443 146.981 35.3643 146.461 35.7777C145.941 36.191 145.401 36.6177 144.841 37.0577L143.941 35.1777C144.421 34.871 144.941 34.5243 145.501 34.1377C146.075 33.751 146.615 33.3577 147.121 32.9577H148.761ZM144.501 20.2777L145.821 19.0977C146.248 19.3777 146.681 19.7043 147.121 20.0777C147.575 20.451 147.988 20.831 148.361 21.2177C148.748 21.591 149.055 21.9443 149.281 22.2777L147.861 23.5977C147.648 23.2777 147.355 22.9243 146.981 22.5377C146.621 22.1377 146.221 21.7443 145.781 21.3577C145.355 20.9577 144.928 20.5977 144.501 20.2777ZM152.541 22.2377L153.761 21.1977C154.375 21.4243 155.035 21.6843 155.741 21.9777C156.461 22.2577 157.148 22.551 157.801 22.8577C158.455 23.1643 159.008 23.451 159.461 23.7177L158.161 24.8777C157.761 24.6243 157.241 24.3443 156.601 24.0377C155.961 23.7177 155.281 23.3977 154.561 23.0777C153.855 22.7577 153.181 22.4777 152.541 22.2377ZM150.681 23.6777H160.961V25.0777H152.461V34.0377H150.681V23.6777ZM160.061 23.6777H161.881V32.2977C161.881 32.711 161.828 33.0377 161.721 33.2777C161.615 33.5043 161.421 33.6843 161.141 33.8177C160.861 33.9377 160.495 34.0177 160.041 34.0577C159.601 34.0843 159.061 34.0977 158.421 34.0977C158.381 33.8577 158.315 33.5977 158.221 33.3177C158.128 33.0243 158.028 32.7777 157.921 32.5777C158.321 32.591 158.695 32.5977 159.041 32.5977C159.401 32.5977 159.635 32.5977 159.741 32.5977C159.875 32.5843 159.961 32.5577 160.001 32.5177C160.041 32.4643 160.061 32.3777 160.061 32.2577V23.6777ZM150.761 19.4177H160.541V20.8777H150.761V19.4177ZM151.661 26.5577H160.721V27.9177H151.661V26.5577ZM151.661 29.4377H160.721V30.8577H151.661V29.4377ZM155.361 24.2977H157.061V33.9577H155.361V24.2977ZM159.901 19.4177H160.321L160.701 19.3177L161.841 20.2177C161.388 20.6443 160.875 21.071 160.301 21.4977C159.728 21.9243 159.128 22.3243 158.501 22.6977C157.875 23.0577 157.255 23.3777 156.641 23.6577C156.521 23.4843 156.361 23.291 156.161 23.0777C155.975 22.8643 155.808 22.6977 155.661 22.5777C156.195 22.3377 156.728 22.0577 157.261 21.7377C157.808 21.4177 158.315 21.0843 158.781 20.7377C159.248 20.391 159.621 20.0643 159.901 19.7577V19.4177Z" fill="black"/>
<path d="M128.881 24.2564V25.9564H138.001V24.2564H128.881ZM128.881 27.5164V29.2364H138.001V27.5164H128.881ZM128.881 20.9964V22.6764H138.001V20.9964H128.881ZM127.041 19.3164H139.921V30.9164H127.041V19.3164ZM134.561 29.6564H136.501V34.5564C136.501 34.8631 136.554 35.0631 136.661 35.1564C136.781 35.2364 137.047 35.2764 137.461 35.2764C137.541 35.2764 137.694 35.2764 137.921 35.2764C138.161 35.2764 138.421 35.2764 138.701 35.2764C138.981 35.2764 139.241 35.2764 139.481 35.2764C139.734 35.2764 139.921 35.2764 140.041 35.2764C140.307 35.2764 140.501 35.2164 140.621 35.0964C140.754 34.9631 140.847 34.6964 140.901 34.2964C140.954 33.8964 140.994 33.2964 141.021 32.4964C141.154 32.6031 141.321 32.7097 141.521 32.8164C141.734 32.9097 141.954 32.9964 142.181 33.0764C142.407 33.1564 142.607 33.2164 142.781 33.2564C142.714 34.2697 142.594 35.0497 142.421 35.5964C142.247 36.1431 141.987 36.5231 141.641 36.7364C141.294 36.9497 140.821 37.0564 140.221 37.0564C140.127 37.0564 139.974 37.0564 139.761 37.0564C139.561 37.0564 139.334 37.0564 139.081 37.0564C138.827 37.0564 138.574 37.0564 138.321 37.0564C138.067 37.0564 137.841 37.0564 137.641 37.0564C137.454 37.0564 137.314 37.0564 137.221 37.0564C136.527 37.0564 135.981 36.9831 135.581 36.8364C135.194 36.6897 134.927 36.4297 134.781 36.0564C134.634 35.6964 134.561 35.2031 134.561 34.5764V29.6564ZM129.721 30.2564H131.761C131.654 31.1497 131.487 31.9697 131.261 32.7164C131.047 33.4497 130.707 34.1031 130.241 34.6764C129.774 35.2497 129.134 35.7497 128.321 36.1764C127.521 36.6164 126.487 36.9764 125.221 37.2564C125.167 37.0964 125.081 36.9097 124.961 36.6964C124.841 36.4964 124.707 36.2897 124.561 36.0764C124.414 35.8764 124.274 35.7164 124.141 35.5964C125.261 35.3697 126.167 35.0964 126.861 34.7764C127.567 34.4564 128.114 34.0831 128.501 33.6564C128.887 33.2164 129.167 32.7164 129.341 32.1564C129.514 31.5964 129.641 30.9631 129.721 30.2564Z" fill="black"/>
<path d="M106.1 19.3767H110.04V21.0967H106.1V19.3767ZM111.44 22.1967H122.3V23.7367H111.44V22.1967ZM111 25.4967H122.64V27.0567H111V25.4967ZM112.36 30.0567H119.82V31.6367H112.36V30.0567ZM106 24.0167H109.68V25.7367H106V24.0167ZM105.96 28.7567H109.7V30.5167H105.96V28.7567ZM105.28 19.3767H106.9V26.5967C106.9 27.3834 106.88 28.2367 106.84 29.1567C106.813 30.0634 106.753 30.9967 106.66 31.9567C106.567 32.9034 106.42 33.8301 106.22 34.7367C106.033 35.6301 105.787 36.4501 105.48 37.1967C105.373 37.1034 105.227 37.0034 105.04 36.8967C104.867 36.7901 104.687 36.6834 104.5 36.5767C104.313 36.4834 104.147 36.4167 104 36.3767C104.293 35.6701 104.527 34.9034 104.7 34.0767C104.873 33.2501 105 32.4034 105.08 31.5367C105.16 30.6567 105.213 29.7967 105.24 28.9567C105.267 28.1167 105.28 27.3301 105.28 26.5967V19.3767ZM108.9 19.3767H110.58V35.1567C110.58 35.5834 110.533 35.9367 110.44 36.2167C110.347 36.4967 110.167 36.7101 109.9 36.8567C109.633 37.0034 109.3 37.0967 108.9 37.1367C108.513 37.1767 108.013 37.1967 107.4 37.1967C107.373 36.9701 107.313 36.6834 107.22 36.3367C107.127 35.9901 107.027 35.6967 106.92 35.4567C107.28 35.4701 107.62 35.4767 107.94 35.4767C108.26 35.4767 108.473 35.4767 108.58 35.4767C108.7 35.4634 108.78 35.4367 108.82 35.3967C108.873 35.3434 108.9 35.2501 108.9 35.1167V19.3767ZM118.92 22.9967C119.16 23.9301 119.473 24.8301 119.86 25.6967C120.26 26.5501 120.733 27.3234 121.28 28.0167C121.827 28.6967 122.44 29.2367 123.12 29.6367C122.92 29.8101 122.7 30.0434 122.46 30.3367C122.22 30.6301 122.033 30.8901 121.9 31.1167C121.167 30.6101 120.507 29.9567 119.92 29.1567C119.347 28.3567 118.853 27.4634 118.44 26.4767C118.027 25.4767 117.687 24.4234 117.42 23.3167L118.92 22.9967ZM119.78 18.8767L121.54 19.3967C121.26 19.9167 120.973 20.4434 120.68 20.9767C120.387 21.4967 120.113 21.9367 119.86 22.2967L118.4 21.8167C118.56 21.5501 118.727 21.2434 118.9 20.8967C119.073 20.5501 119.233 20.2034 119.38 19.8567C119.54 19.4967 119.673 19.1701 119.78 18.8767ZM115.4 28.0367H117.14C117.073 29.1301 116.96 30.1434 116.8 31.0767C116.64 32.0101 116.38 32.8634 116.02 33.6367C115.673 34.4101 115.18 35.0967 114.54 35.6967C113.9 36.3101 113.067 36.8301 112.04 37.2567C111.947 37.0301 111.793 36.7701 111.58 36.4767C111.367 36.1967 111.167 35.9767 110.98 35.8167C111.9 35.4701 112.64 35.0434 113.2 34.5367C113.76 34.0301 114.187 33.4501 114.48 32.7967C114.773 32.1434 114.987 31.4234 115.12 30.6367C115.253 29.8367 115.347 28.9701 115.4 28.0367ZM115.56 18.6367L117.3 18.8167C117.047 20.7101 116.68 22.4301 116.2 23.9767C115.733 25.5101 115.113 26.8767 114.34 28.0767C113.567 29.2767 112.593 30.3101 111.42 31.1767C111.353 31.0567 111.247 30.9034 111.1 30.7167C110.967 30.5301 110.827 30.3434 110.68 30.1567C110.533 29.9701 110.4 29.8167 110.28 29.6967C111.373 28.9767 112.273 28.0767 112.98 26.9967C113.687 25.9167 114.24 24.6767 114.64 23.2767C115.053 21.8767 115.36 20.3301 115.56 18.6367ZM119.28 30.0567H121.04C121.04 30.0567 121.04 30.1501 121.04 30.3367C121.04 30.5101 121.027 30.6567 121 30.7767C120.933 32.0034 120.86 33.0034 120.78 33.7767C120.713 34.5501 120.627 35.1434 120.52 35.5567C120.413 35.9834 120.273 36.2967 120.1 36.4967C119.927 36.6967 119.74 36.8367 119.54 36.9167C119.34 36.9967 119.107 37.0501 118.84 37.0767C118.6 37.1034 118.28 37.1167 117.88 37.1167C117.48 37.1301 117.067 37.1234 116.64 37.0967C116.627 36.8567 116.573 36.5834 116.48 36.2767C116.4 35.9834 116.293 35.7301 116.16 35.5167C116.56 35.5567 116.927 35.5767 117.26 35.5767C117.593 35.5901 117.84 35.5967 118 35.5967C118.147 35.5967 118.26 35.5834 118.34 35.5567C118.433 35.5434 118.52 35.4901 118.6 35.3967C118.707 35.2901 118.8 35.0567 118.88 34.6967C118.96 34.3234 119.027 33.7901 119.08 33.0967C119.147 32.3901 119.213 31.4634 119.28 30.3167V30.0567ZM111.74 19.4767L113.16 18.9767C113.427 19.3901 113.673 19.8501 113.9 20.3567C114.127 20.8634 114.293 21.3034 114.4 21.6767L112.84 22.2567C112.773 21.8701 112.633 21.4167 112.42 20.8967C112.207 20.3767 111.98 19.9034 111.74 19.4767Z" fill="black"/>
</svg>
