<svg width="1423" height="66" viewBox="0 0 1423 66" fill="none" xmlns="http://www.w3.org/2000/svg">
<path d="M1224.02 65.8793C1219.29 65.8793 1215.06 64.8356 1211.31 62.748C1207.63 60.5991 1204.71 57.6827 1202.56 53.9988C1200.41 50.2535 1199.34 46.0171 1199.34 41.2894V1.04297H1208V41.1052C1208 44.4821 1208.7 47.3985 1210.12 49.8544C1211.53 52.3104 1213.43 54.2137 1215.83 55.5645C1218.28 56.9152 1221.01 57.5906 1224.02 57.5906C1227.15 57.5906 1229.89 56.9152 1232.22 55.5645C1234.61 54.2137 1236.49 52.3104 1237.84 49.8544C1239.25 47.3985 1239.95 44.5128 1239.95 41.1973V1.04297H1248.7V41.3815C1248.7 46.1092 1247.63 50.3149 1245.48 53.9988C1243.33 57.6827 1240.42 60.5991 1236.73 62.748C1233.05 64.8356 1228.81 65.8793 1224.02 65.8793Z" fill="#F1F1F1"/>
<path d="M1155.14 65.8784C1150.6 65.8784 1146.36 65.0496 1142.43 63.3918C1138.5 61.6727 1135.06 59.3088 1132.11 56.3003C1129.17 53.2304 1126.86 49.7 1125.21 45.7092C1123.61 41.7183 1122.81 37.4511 1122.81 32.9077C1122.81 28.3028 1123.61 24.0356 1125.21 20.1062C1126.86 16.1153 1129.14 12.6156 1132.02 9.6071C1134.97 6.59859 1138.38 4.26546 1142.24 2.60772C1146.17 0.949967 1150.41 0.121094 1154.95 0.121094C1159.5 0.121094 1163.7 0.949967 1167.57 2.60772C1171.5 4.26546 1174.94 6.59859 1177.89 9.6071C1180.83 12.6156 1183.14 16.1153 1184.79 20.1062C1186.45 24.097 1187.28 28.3949 1187.28 32.9998C1187.28 37.5432 1186.45 41.8104 1184.79 45.8013C1183.14 49.7921 1180.83 53.2918 1177.89 56.3003C1175 59.3088 1171.59 61.6727 1167.66 63.3918C1163.8 65.0496 1159.62 65.8784 1155.14 65.8784ZM1154.95 57.5897C1159.56 57.5897 1163.58 56.5459 1167.02 54.4584C1170.52 52.3095 1173.28 49.3931 1175.31 45.7092C1177.33 41.9639 1178.35 37.6967 1178.35 32.9077C1178.35 29.3466 1177.76 26.0925 1176.6 23.1454C1175.43 20.1369 1173.8 17.5274 1171.72 15.3171C1169.63 13.1068 1167.17 11.4183 1164.35 10.2518C1161.52 9.02382 1158.39 8.40983 1154.95 8.40983C1150.41 8.40983 1146.39 9.4536 1142.89 11.5411C1139.45 13.6287 1136.72 16.5144 1134.69 20.1983C1132.73 23.8821 1131.75 28.1186 1131.75 32.9077C1131.75 36.4687 1132.3 39.7843 1133.4 42.8542C1134.57 45.8627 1136.17 48.4721 1138.19 50.6824C1140.28 52.8313 1142.74 54.5198 1145.56 55.7477C1148.45 56.9757 1151.58 57.5897 1154.95 57.5897Z" fill="#F1F1F1"/>
<path d="M1089.79 38.987L1064.65 1.04297H1074.69L1094.95 32.0797H1090.44L1110.79 1.04297H1120.65L1095.32 38.987H1089.79ZM1088.32 64.9584V33.277H1096.98V64.9584H1088.32Z" fill="#F1F1F1"/>
<path d="M1030.43 65.8784C1025.95 65.8784 1021.75 65.0496 1017.82 63.3918C1013.95 61.6727 1010.54 59.3088 1007.59 56.3003C1004.71 53.2918 1002.44 49.7921 1000.78 45.8013C999.122 41.8104 998.293 37.5125 998.293 32.9077C998.293 28.3028 999.122 24.0356 1000.78 20.1062C1002.44 16.1153 1004.74 12.6156 1007.69 9.6071C1010.63 6.59859 1014.07 4.26546 1018 2.60772C1021.99 0.949967 1026.32 0.121094 1030.99 0.121094C1036.08 0.121094 1040.78 1.10346 1045.08 3.0682C1049.38 5.03294 1052.97 7.85725 1055.85 11.5411L1049.87 17.5274C1047.84 14.5803 1045.17 12.3393 1041.85 10.8044C1038.54 9.20801 1034.92 8.40983 1030.99 8.40983C1026.32 8.40983 1022.18 9.4536 1018.55 11.5411C1014.99 13.6287 1012.2 16.5144 1010.17 20.1983C1008.21 23.8821 1007.23 28.1186 1007.23 32.9077C1007.23 37.7581 1008.24 42.0253 1010.27 45.7092C1012.29 49.3931 1015.02 52.2788 1018.46 54.3663C1021.9 56.4538 1025.83 57.4976 1030.25 57.4976C1034.73 57.4976 1038.6 56.638 1041.85 54.9189C1045.17 53.1997 1047.72 50.6824 1049.5 47.3669C1051.28 43.99 1052.17 39.8763 1052.17 35.0259L1057.42 38.8019H1029.79V30.8815H1061.1V32.1709C1061.1 39.6001 1059.78 45.832 1057.14 50.8666C1054.56 55.8398 1050.94 59.5851 1046.28 62.1024C1041.67 64.6198 1036.39 65.8784 1030.43 65.8784Z" fill="#F1F1F1"/>
<path d="M956.041 65.8784C951.497 65.8784 947.261 65.0496 943.332 63.3918C939.402 61.6727 935.964 59.3088 933.017 56.3003C930.07 53.2304 927.767 49.7 926.109 45.7092C924.513 41.7183 923.715 37.4511 923.715 32.9077C923.715 28.3028 924.513 24.0356 926.109 20.1062C927.767 16.1153 930.039 12.6156 932.925 9.6071C935.872 6.59859 939.279 4.26546 943.147 2.60772C947.077 0.949967 951.313 0.121094 955.857 0.121094C960.4 0.121094 964.606 0.949967 968.474 2.60772C972.404 4.26546 975.842 6.59859 978.789 9.6071C981.736 12.6156 984.038 16.1153 985.696 20.1062C987.354 24.097 988.183 28.3949 988.183 32.9998C988.183 37.5432 987.354 41.8104 985.696 45.8013C984.038 49.7921 981.736 53.2918 978.789 56.3003C975.903 59.3088 972.496 61.6727 968.566 63.3918C964.698 65.0496 960.523 65.8784 956.041 65.8784ZM955.857 57.5897C960.462 57.5897 964.483 56.5459 967.921 54.4584C971.421 52.3095 974.184 49.3931 976.21 45.7092C978.236 41.9639 979.249 37.6967 979.249 32.9077C979.249 29.3466 978.666 26.0925 977.5 23.1454C976.333 20.1369 974.706 17.5274 972.618 15.3171C970.531 13.1068 968.075 11.4183 965.251 10.2518C962.426 9.02382 959.295 8.40983 955.857 8.40983C951.313 8.40983 947.292 9.4536 943.792 11.5411C940.354 13.6287 937.622 16.5144 935.595 20.1983C933.631 23.8821 932.648 28.1186 932.648 32.9077C932.648 36.4687 933.201 39.7843 934.306 42.8542C935.473 45.8627 937.069 48.4721 939.095 50.6824C941.183 52.8313 943.639 54.5198 946.463 55.7477C949.349 56.9757 952.48 57.5897 955.857 57.5897Z" fill="#F1F1F1"/>
<path d="M910.303 64.9584L878.069 31.6192L909.658 1.04297H920.894L886.818 33.8295V29.0405L921.815 64.9584H910.303ZM870.793 64.9584V1.04297H879.45V64.9584H870.793Z" fill="#F1F1F1"/>
<path d="M784.41 64.9584V1.04297H790.489L793.067 11.0815V64.9584H784.41ZM828.617 64.9584L789.383 12.5551L790.489 1.04297L829.814 53.3541L828.617 64.9584ZM828.617 64.9584L826.038 55.4724V1.04297H834.695V64.9584H828.617Z" fill="#F1F1F1"/>
<path d="M759.746 64.9584V1.04297H768.403V64.9584H759.746Z" fill="#F1F1F1"/>
<path d="M693.797 64.9584V1.04297H702.454V64.9584H693.797ZM735.056 64.9584V1.04297H743.714V64.9584H735.056ZM699.691 35.8557V27.9353H737.175V35.8557H699.691Z" fill="#F1F1F1"/>
<path d="M659.567 65.8784C654.532 65.8784 650.235 64.9575 646.674 63.1155C643.112 61.2736 639.95 58.6028 637.188 55.1031L643.082 49.2089C645.108 52.0332 647.441 54.1821 650.081 55.6557C652.721 57.0678 655.975 57.7739 659.843 57.7739C663.65 57.7739 666.689 56.945 668.961 55.2873C671.294 53.6295 672.461 51.3578 672.461 48.4721C672.461 46.0776 671.908 44.1435 670.803 42.67C669.698 41.1964 668.194 39.9991 666.29 39.0782C664.448 38.0958 662.422 37.2362 660.212 36.4995C658.001 35.7013 655.791 34.8724 653.581 34.0128C651.37 33.0919 649.344 31.9867 647.502 30.6973C645.66 29.3466 644.156 27.5967 642.99 25.4478C641.884 23.2989 641.332 20.5974 641.332 17.3433C641.332 13.7208 642.191 10.6509 643.911 8.13354C645.691 5.55482 648.086 3.59008 651.094 2.23933C654.164 0.827171 657.602 0.121094 661.409 0.121094C665.584 0.121094 669.329 0.949967 672.645 2.60772C675.96 4.20407 678.662 6.3223 680.749 8.96242L674.855 14.8566C672.952 12.6463 670.895 10.9886 668.685 9.88339C666.536 8.77822 664.049 8.22564 661.225 8.22564C657.787 8.22564 655.054 8.99312 653.028 10.5281C651.002 12.0016 649.989 14.0892 649.989 16.7907C649.989 18.9396 650.542 20.6894 651.647 22.0402C652.813 23.3296 654.318 24.4347 656.16 25.3557C658.001 26.2767 660.028 27.1362 662.238 27.9344C664.51 28.6712 666.751 29.5001 668.961 30.421C671.171 31.342 673.197 32.5086 675.039 33.9207C676.881 35.3329 678.355 37.1748 679.46 39.4466C680.627 41.6569 681.21 44.4505 681.21 47.8274C681.21 53.476 679.245 57.8967 675.316 61.0894C671.448 64.2821 666.198 65.8784 659.567 65.8784Z" fill="#F1F1F1"/>
<path d="M602.67 65.8793C597.943 65.8793 593.706 64.8356 589.961 62.748C586.277 60.5991 583.361 57.6827 581.212 53.9988C579.063 50.2535 577.988 46.0171 577.988 41.2894V1.04297H586.645V41.1052C586.645 44.4821 587.352 47.3985 588.764 49.8544C590.176 52.3104 592.079 54.2137 594.474 55.5645C596.93 56.9152 599.662 57.5906 602.67 57.5906C605.802 57.5906 608.534 56.9152 610.867 55.5645C613.261 54.2137 615.134 52.3104 616.485 49.8544C617.897 47.3985 618.603 44.5128 618.603 41.1973V1.04297H627.352V41.3815C627.352 46.1092 626.278 50.3149 624.129 53.9988C621.98 57.6827 619.064 60.5991 615.38 62.748C611.696 64.8356 607.459 65.8793 602.67 65.8793Z" fill="#F1F1F1"/>
<path d="M538.881 65.8793C534.154 65.8793 529.917 64.8356 526.172 62.748C522.488 60.5991 519.572 57.6827 517.423 53.9988C515.274 50.2535 514.199 46.0171 514.199 41.2894V1.04297H522.856V41.1052C522.856 44.4821 523.562 47.3985 524.975 49.8544C526.387 52.3104 528.29 54.2137 530.685 55.5645C533.141 56.9152 535.873 57.5906 538.881 57.5906C542.013 57.5906 544.745 56.9152 547.078 55.5645C549.472 54.2137 551.345 52.3104 552.696 49.8544C554.108 47.3985 554.814 44.5128 554.814 41.1973V1.04297H563.563V41.3815C563.563 46.1092 562.489 50.3149 560.34 53.9988C558.191 57.6827 555.275 60.5991 551.591 62.748C547.907 64.8356 543.67 65.8793 538.881 65.8793Z" fill="#F1F1F1"/>
<path d="M479.626 65.8784C474.591 65.8784 470.293 64.9575 466.732 63.1155C463.171 61.2736 460.009 58.6028 457.246 55.1031L463.14 49.2089C465.166 52.0332 467.5 54.1821 470.14 55.6557C472.78 57.0678 476.034 57.7739 479.902 57.7739C483.709 57.7739 486.748 56.945 489.02 55.2873C491.353 53.6295 492.519 51.3578 492.519 48.4721C492.519 46.0776 491.967 44.1435 490.862 42.67C489.756 41.1964 488.252 39.9991 486.349 39.0782C484.507 38.0958 482.481 37.2362 480.27 36.4995C478.06 35.7013 475.85 34.8724 473.639 34.0128C471.429 33.0919 469.403 31.9867 467.561 30.6973C465.719 29.3466 464.215 27.5967 463.048 25.4478C461.943 23.2989 461.39 20.5974 461.39 17.3433C461.39 13.7208 462.25 10.6509 463.969 8.13354C465.75 5.55482 468.144 3.59008 471.153 2.23933C474.223 0.827171 477.661 0.121094 481.468 0.121094C485.643 0.121094 489.388 0.949967 492.703 2.60772C496.019 4.20407 498.72 6.3223 500.808 8.96242L494.914 14.8566C493.01 12.6463 490.954 10.9886 488.743 9.88339C486.594 8.77822 484.108 8.22564 481.283 8.22564C477.845 8.22564 475.113 8.99312 473.087 10.5281C471.061 12.0016 470.048 14.0892 470.048 16.7907C470.048 18.9396 470.6 20.6894 471.705 22.0402C472.872 23.3296 474.376 24.4347 476.218 25.3557C478.06 26.2767 480.086 27.1362 482.297 27.9344C484.568 28.6712 486.809 29.5001 489.02 30.421C491.23 31.342 493.256 32.5086 495.098 33.9207C496.94 35.3329 498.413 37.1748 499.519 39.4466C500.685 41.6569 501.268 44.4505 501.268 47.8274C501.268 53.476 499.304 57.8967 495.374 61.0894C491.506 64.2821 486.257 65.8784 479.626 65.8784Z" fill="#F1F1F1"/>
<path d="M424.27 64.9584V2.88491H432.927V64.9584H424.27ZM402.535 8.96332V1.04297H454.57V8.96332H402.535Z" fill="#F1F1F1"/>
<path d="M364.023 64.9584V1.04297H372.681V64.9584H364.023Z" fill="#F1F1F1"/>
<path d="M285.844 64.9584V1.04297H291.922L318.999 45.5259H314.854L341.931 1.04297H348.009V64.9584H339.352V16.239L341.378 16.7916L320.012 51.8806H313.933L292.567 16.7916L294.501 16.239V64.9584H285.844Z" fill="#F1F1F1"/>
<path d="M246.002 65.8793C241.275 65.8793 237.038 64.8356 233.293 62.748C229.609 60.5991 226.693 57.6827 224.544 53.9988C222.395 50.2535 221.32 46.0171 221.32 41.2894V1.04297H229.977V41.1052C229.977 44.4821 230.684 47.3985 232.096 49.8544C233.508 52.3104 235.411 54.2137 237.806 55.5645C240.262 56.9152 242.994 57.5906 246.002 57.5906C249.134 57.5906 251.866 56.9152 254.199 55.5645C256.594 54.2137 258.466 52.3104 259.817 49.8544C261.229 47.3985 261.935 44.5128 261.935 41.1973V1.04297H270.684V41.3815C270.684 46.1092 269.61 50.3149 267.461 53.9988C265.312 57.6827 262.396 60.5991 258.712 62.748C255.028 64.8356 250.791 65.8793 246.002 65.8793Z" fill="#F1F1F1"/>
<path d="M186.747 65.8784C181.712 65.8784 177.414 64.9575 173.853 63.1155C170.292 61.2736 167.13 58.6028 164.367 55.1031L170.261 49.2089C172.288 52.0332 174.621 54.1821 177.261 55.6557C179.901 57.0678 183.155 57.7739 187.023 57.7739C190.83 57.7739 193.869 56.945 196.141 55.2873C198.474 53.6295 199.64 51.3578 199.64 48.4721C199.64 46.0776 199.088 44.1435 197.983 42.67C196.877 41.1964 195.373 39.9991 193.47 39.0782C191.628 38.0958 189.602 37.2362 187.391 36.4995C185.181 35.7013 182.971 34.8724 180.76 34.0128C178.55 33.0919 176.524 31.9867 174.682 30.6973C172.84 29.3466 171.336 27.5967 170.169 25.4478C169.064 23.2989 168.512 20.5974 168.512 17.3433C168.512 13.7208 169.371 10.6509 171.09 8.13354C172.871 5.55482 175.265 3.59008 178.274 2.23933C181.344 0.827171 184.782 0.121094 188.589 0.121094C192.764 0.121094 196.509 0.949967 199.825 2.60772C203.14 4.20407 205.842 6.3223 207.929 8.96242L202.035 14.8566C200.132 12.6463 198.075 10.9886 195.864 9.88339C193.715 8.77822 191.229 8.22564 188.405 8.22564C184.966 8.22564 182.234 8.99312 180.208 10.5281C178.182 12.0016 177.169 14.0892 177.169 16.7907C177.169 18.9396 177.721 20.6894 178.826 22.0402C179.993 23.3296 181.497 24.4347 183.339 25.3557C185.181 26.2767 187.207 27.1362 189.418 27.9344C191.689 28.6712 193.93 29.5001 196.141 30.421C198.351 31.342 200.377 32.5086 202.219 33.9207C204.061 35.3329 205.535 37.1748 206.64 39.4466C207.806 41.6569 208.39 44.4505 208.39 47.8274C208.39 53.476 206.425 57.8967 202.495 61.0894C198.627 64.2821 193.378 65.8784 186.747 65.8784Z" fill="#F1F1F1"/>
<path d="M131.391 64.9584V2.88491H140.048V64.9584H131.391ZM109.656 8.96332V1.04297H161.691V8.96332H109.656Z" fill="#F1F1F1"/>
<path d="M54.0547 64.9584L80.2103 1.04297H86.4729L112.536 64.9584H103.142L81.6838 10.8974H84.9072L63.2644 64.9584H54.0547ZM66.4878 50.4991V42.9472H100.103V50.4991H66.4878Z" fill="#F1F1F1"/>
<path d="M39.5097 64.9584L7.27567 31.6192L38.865 1.04297H50.1008L16.0249 33.8295V29.0405L51.0218 64.9584H39.5097ZM0 64.9584V1.04297H8.65713V64.9584H0Z" fill="#F1F1F1"/>
<g opacity="0.6">
<path d="M1407.3 0.496094V31.6078L1381.75 0.496094H1333.09L1307.54 31.6658V0.496094H1292.7V65.5005H1307.65V36.4165L1334.81 65.4425L1350.86 65.3267V65.4425H1363.81V65.3267L1380.08 65.4425L1407.25 36.4165V65.5005H1422.14V0.496094H1407.25H1407.3ZM1321.7 34.3308L1341.7 12.2571H1350.81V64.5735L1321.65 34.3308H1321.7ZM1363.81 64.8053V12.2571H1373.2L1393.19 34.3308L1363.81 64.8053Z" fill="#E7E7E7"/>
</g>
</svg>
