<svg width="1427" height="70" viewBox="0 0 1427 70" fill="none" xmlns="http://www.w3.org/2000/svg">
<g filter="url(#filter0_f_3457_9068)">
<path d="M1226.02 67.7582C1221.29 67.7582 1217.06 66.7145 1213.31 64.6269C1209.63 62.478 1206.71 59.5616 1204.56 55.8777C1202.41 52.1324 1201.34 47.896 1201.34 43.1683V2.92188H1210V42.9841C1210 46.361 1210.7 49.2774 1212.12 51.7333C1213.53 54.1893 1215.43 56.0926 1217.83 57.4434C1220.28 58.7941 1223.01 59.4695 1226.02 59.4695C1229.15 59.4695 1231.89 58.7941 1234.22 57.4434C1236.61 56.0926 1238.49 54.1893 1239.84 51.7333C1241.25 49.2774 1241.95 46.3917 1241.95 43.0762V2.92188H1250.7V43.2604C1250.7 47.9881 1249.63 52.1938 1247.48 55.8777C1245.33 59.5616 1242.42 62.478 1238.73 64.6269C1235.05 66.7145 1230.81 67.7582 1226.02 67.7582Z" fill="#CFE2FA"/>
<path d="M1157.14 67.7573C1152.6 67.7573 1148.36 66.9285 1144.43 65.2707C1140.5 63.5516 1137.06 61.1877 1134.11 58.1792C1131.17 55.1093 1128.86 51.5789 1127.21 47.5881C1125.61 43.5972 1124.81 39.33 1124.81 34.7866C1124.81 30.1817 1125.61 25.9146 1127.21 21.9851C1128.86 17.9942 1131.14 14.4945 1134.02 11.486C1136.97 8.4775 1140.38 6.14437 1144.24 4.48662C1148.17 2.82887 1152.41 2 1156.95 2C1161.5 2 1165.7 2.82887 1169.57 4.48662C1173.5 6.14437 1176.94 8.4775 1179.89 11.486C1182.83 14.4945 1185.14 17.9942 1186.79 21.9851C1188.45 25.9759 1189.28 30.2738 1189.28 34.8787C1189.28 39.4221 1188.45 43.6893 1186.79 47.6802C1185.14 51.671 1182.83 55.1707 1179.89 58.1792C1177 61.1877 1173.59 63.5516 1169.66 65.2707C1165.8 66.9285 1161.62 67.7573 1157.14 67.7573ZM1156.95 59.4686C1161.56 59.4686 1165.58 58.4248 1169.02 56.3373C1172.52 54.1884 1175.28 51.272 1177.31 47.5881C1179.33 43.8428 1180.35 39.5756 1180.35 34.7866C1180.35 31.2255 1179.76 27.9714 1178.6 25.0243C1177.43 22.0158 1175.8 19.4064 1173.72 17.196C1171.63 14.9857 1169.17 13.2972 1166.35 12.1307C1163.52 10.9027 1160.39 10.2887 1156.95 10.2887C1152.41 10.2887 1148.39 11.3325 1144.89 13.42C1141.45 15.5076 1138.72 18.3933 1136.69 22.0772C1134.73 25.7611 1133.75 29.9975 1133.75 34.7866C1133.75 38.3477 1134.3 41.6632 1135.4 44.7331C1136.57 47.7416 1138.17 50.351 1140.19 52.5613C1142.28 54.7102 1144.74 56.3987 1147.56 57.6267C1150.45 58.8546 1153.58 59.4686 1156.95 59.4686Z" fill="#CFE2FA"/>
<path d="M1091.79 40.8659L1066.65 2.92188H1076.69L1096.95 33.9586H1092.44L1112.79 2.92188H1122.65L1097.32 40.8659H1091.79ZM1090.32 66.8373V35.1559H1098.98V66.8373H1090.32Z" fill="#CFE2FA"/>
<path d="M1032.43 67.7573C1027.95 67.7573 1023.75 66.9285 1019.82 65.2707C1015.95 63.5516 1012.54 61.1877 1009.59 58.1792C1006.71 55.1707 1004.44 51.671 1002.78 47.6802C1001.12 43.6893 1000.29 39.3914 1000.29 34.7866C1000.29 30.1817 1001.12 25.9146 1002.78 21.9851C1004.44 17.9942 1006.74 14.4945 1009.69 11.486C1012.63 8.4775 1016.07 6.14437 1020 4.48662C1023.99 2.82887 1028.32 2 1032.99 2C1038.08 2 1042.78 2.98237 1047.08 4.94711C1051.38 6.91185 1054.97 9.73616 1057.85 13.42L1051.87 19.4064C1049.84 16.4592 1047.17 14.2182 1043.85 12.6833C1040.54 11.0869 1036.92 10.2887 1032.99 10.2887C1028.32 10.2887 1024.18 11.3325 1020.55 13.42C1016.99 15.5076 1014.2 18.3933 1012.17 22.0772C1010.21 25.7611 1009.23 29.9975 1009.23 34.7866C1009.23 39.637 1010.24 43.9042 1012.27 47.5881C1014.29 51.272 1017.02 54.1577 1020.46 56.2452C1023.9 58.3327 1027.83 59.3765 1032.25 59.3765C1036.73 59.3765 1040.6 58.5169 1043.85 56.7978C1047.17 55.0786 1049.72 52.5613 1051.5 49.2458C1053.28 45.8689 1054.17 41.7552 1054.17 36.9048L1059.42 40.6808H1031.79V32.7604H1063.1V34.0498C1063.1 41.479 1061.78 47.7109 1059.14 52.7455C1056.56 57.7188 1052.94 61.464 1048.28 63.9814C1043.67 66.4987 1038.39 67.7573 1032.43 67.7573Z" fill="#CFE2FA"/>
<path d="M958.041 67.7573C953.497 67.7573 949.261 66.9285 945.332 65.2707C941.402 63.5516 937.964 61.1877 935.017 58.1792C932.07 55.1093 929.767 51.5789 928.109 47.5881C926.513 43.5972 925.715 39.33 925.715 34.7866C925.715 30.1817 926.513 25.9146 928.109 21.9851C929.767 17.9942 932.039 14.4945 934.925 11.486C937.872 8.4775 941.279 6.14437 945.147 4.48662C949.077 2.82887 953.313 2 957.857 2C962.4 2 966.606 2.82887 970.474 4.48662C974.404 6.14437 977.842 8.4775 980.789 11.486C983.736 14.4945 986.038 17.9942 987.696 21.9851C989.354 25.9759 990.183 30.2738 990.183 34.8787C990.183 39.4221 989.354 43.6893 987.696 47.6802C986.038 51.671 983.736 55.1707 980.789 58.1792C977.903 61.1877 974.496 63.5516 970.566 65.2707C966.698 66.9285 962.523 67.7573 958.041 67.7573ZM957.857 59.4686C962.462 59.4686 966.483 58.4248 969.921 56.3373C973.421 54.1884 976.184 51.272 978.21 47.5881C980.236 43.8428 981.249 39.5756 981.249 34.7866C981.249 31.2255 980.666 27.9714 979.5 25.0243C978.333 22.0158 976.706 19.4064 974.618 17.196C972.531 14.9857 970.075 13.2972 967.251 12.1307C964.426 10.9027 961.295 10.2887 957.857 10.2887C953.313 10.2887 949.292 11.3325 945.792 13.42C942.354 15.5076 939.622 18.3933 937.595 22.0772C935.631 25.7611 934.648 29.9975 934.648 34.7866C934.648 38.3477 935.201 41.6632 936.306 44.7331C937.473 47.7416 939.069 50.351 941.095 52.5613C943.183 54.7102 945.639 56.3987 948.463 57.6267C951.349 58.8546 954.48 59.4686 957.857 59.4686Z" fill="#CFE2FA"/>
<path d="M912.303 66.8373L880.069 33.4981L911.658 2.92188H922.894L888.818 35.7084V30.9194L923.815 66.8373H912.303ZM872.793 66.8373V2.92188H881.45V66.8373H872.793Z" fill="#CFE2FA"/>
<path d="M786.41 66.8373V2.92188H792.489L795.067 12.9605V66.8373H786.41ZM830.617 66.8373L791.383 14.434L792.489 2.92188L831.814 55.233L830.617 66.8373ZM830.617 66.8373L828.038 57.3513V2.92188H836.695V66.8373H830.617Z" fill="#CFE2FA"/>
<path d="M761.746 66.8373V2.92188H770.403V66.8373H761.746Z" fill="#CFE2FA"/>
<path d="M695.797 66.8373V2.92188H704.454V66.8373H695.797ZM737.056 66.8373V2.92188H745.714V66.8373H737.056ZM701.691 37.7346V29.8142H739.175V37.7346H701.691Z" fill="#CFE2FA"/>
<path d="M661.567 67.7573C656.532 67.7573 652.235 66.8364 648.674 64.9944C645.112 63.1525 641.95 60.4817 639.188 56.982L645.082 51.0878C647.108 53.9121 649.441 56.061 652.081 57.5346C654.721 58.9467 657.975 59.6528 661.843 59.6528C665.65 59.6528 668.689 58.8239 670.961 57.1662C673.294 55.5084 674.461 53.2367 674.461 50.351C674.461 47.9565 673.908 46.0224 672.803 44.5489C671.698 43.0753 670.194 41.878 668.29 40.9571C666.448 39.9747 664.422 39.1151 662.212 38.3784C660.001 37.5802 657.791 36.7513 655.581 35.8917C653.37 34.9708 651.344 33.8656 649.502 32.5762C647.66 31.2255 646.156 29.4756 644.99 27.3267C643.884 25.1778 643.332 22.4763 643.332 19.2222C643.332 15.5997 644.191 12.5298 645.911 10.0124C647.691 7.43373 650.086 5.46899 653.094 4.11823C656.164 2.70608 659.602 2 663.409 2C667.584 2 671.329 2.82887 674.645 4.48662C677.96 6.08297 680.662 8.20121 682.749 10.8413L676.855 16.7355C674.952 14.5252 672.895 12.8675 670.685 11.7623C668.536 10.6571 666.049 10.1045 663.225 10.1045C659.787 10.1045 657.054 10.872 655.028 12.407C653.002 13.8805 651.989 15.9681 651.989 18.6696C651.989 20.8185 652.542 22.5684 653.647 23.9191C654.813 25.2085 656.318 26.3136 658.16 27.2346C660.001 28.1556 662.028 29.0152 664.238 29.8133C666.51 30.5501 668.751 31.379 670.961 32.2999C673.171 33.2209 675.197 34.3875 677.039 35.7996C678.881 37.2118 680.355 39.0537 681.46 41.3255C682.627 43.5358 683.21 46.3294 683.21 49.7063C683.21 55.3549 681.245 59.7756 677.316 62.9683C673.448 66.161 668.198 67.7573 661.567 67.7573Z" fill="#CFE2FA"/>
<path d="M604.67 67.7582C599.943 67.7582 595.706 66.7145 591.961 64.6269C588.277 62.478 585.361 59.5616 583.212 55.8777C581.063 52.1324 579.988 47.896 579.988 43.1683V2.92188H588.645V42.9841C588.645 46.361 589.352 49.2774 590.764 51.7333C592.176 54.1893 594.079 56.0926 596.474 57.4434C598.93 58.7941 601.662 59.4695 604.67 59.4695C607.802 59.4695 610.534 58.7941 612.867 57.4434C615.261 56.0926 617.134 54.1893 618.485 51.7333C619.897 49.2774 620.603 46.3917 620.603 43.0762V2.92188H629.352V43.2604C629.352 47.9881 628.278 52.1938 626.129 55.8777C623.98 59.5616 621.064 62.478 617.38 64.6269C613.696 66.7145 609.459 67.7582 604.67 67.7582Z" fill="#CFE2FA"/>
<path d="M540.881 67.7582C536.154 67.7582 531.917 66.7145 528.172 64.6269C524.488 62.478 521.572 59.5616 519.423 55.8777C517.274 52.1324 516.199 47.896 516.199 43.1683V2.92188H524.856V42.9841C524.856 46.361 525.562 49.2774 526.975 51.7333C528.387 54.1893 530.29 56.0926 532.685 57.4434C535.141 58.7941 537.873 59.4695 540.881 59.4695C544.013 59.4695 546.745 58.7941 549.078 57.4434C551.472 56.0926 553.345 54.1893 554.696 51.7333C556.108 49.2774 556.814 46.3917 556.814 43.0762V2.92188H565.563V43.2604C565.563 47.9881 564.489 52.1938 562.34 55.8777C560.191 59.5616 557.275 62.478 553.591 64.6269C549.907 66.7145 545.67 67.7582 540.881 67.7582Z" fill="#CFE2FA"/>
<path d="M481.626 67.7573C476.591 67.7573 472.293 66.8364 468.732 64.9944C465.171 63.1525 462.009 60.4817 459.246 56.982L465.14 51.0878C467.166 53.9121 469.5 56.061 472.14 57.5346C474.78 58.9467 478.034 59.6528 481.902 59.6528C485.709 59.6528 488.748 58.8239 491.02 57.1662C493.353 55.5084 494.519 53.2367 494.519 50.351C494.519 47.9565 493.967 46.0224 492.862 44.5489C491.756 43.0753 490.252 41.878 488.349 40.9571C486.507 39.9747 484.481 39.1151 482.27 38.3784C480.06 37.5802 477.85 36.7513 475.639 35.8917C473.429 34.9708 471.403 33.8656 469.561 32.5762C467.719 31.2255 466.215 29.4756 465.048 27.3267C463.943 25.1778 463.39 22.4763 463.39 19.2222C463.39 15.5997 464.25 12.5298 465.969 10.0124C467.75 7.43373 470.144 5.46899 473.153 4.11823C476.223 2.70608 479.661 2 483.468 2C487.643 2 491.388 2.82887 494.703 4.48662C498.019 6.08297 500.72 8.20121 502.808 10.8413L496.914 16.7355C495.01 14.5252 492.954 12.8675 490.743 11.7623C488.594 10.6571 486.108 10.1045 483.283 10.1045C479.845 10.1045 477.113 10.872 475.087 12.407C473.061 13.8805 472.048 15.9681 472.048 18.6696C472.048 20.8185 472.6 22.5684 473.705 23.9191C474.872 25.2085 476.376 26.3136 478.218 27.2346C480.06 28.1556 482.086 29.0152 484.297 29.8133C486.568 30.5501 488.809 31.379 491.02 32.2999C493.23 33.2209 495.256 34.3875 497.098 35.7996C498.94 37.2118 500.413 39.0537 501.519 41.3255C502.685 43.5358 503.268 46.3294 503.268 49.7063C503.268 55.3549 501.304 59.7756 497.374 62.9683C493.506 66.161 488.257 67.7573 481.626 67.7573Z" fill="#CFE2FA"/>
<path d="M426.27 66.8373V4.76382H434.927V66.8373H426.27ZM404.535 10.8422V2.92188H456.57V10.8422H404.535Z" fill="#CFE2FA"/>
<path d="M366.023 66.8373V2.92188H374.681V66.8373H366.023Z" fill="#CFE2FA"/>
<path d="M287.844 66.8373V2.92188H293.922L320.999 47.4048H316.854L343.931 2.92188H350.009V66.8373H341.352V18.1179L343.378 18.6705L322.012 53.7595H315.933L294.567 18.6705L296.501 18.1179V66.8373H287.844Z" fill="#CFE2FA"/>
<path d="M248.002 67.7582C243.275 67.7582 239.038 66.7145 235.293 64.6269C231.609 62.478 228.693 59.5616 226.544 55.8777C224.395 52.1324 223.32 47.896 223.32 43.1683V2.92188H231.977V42.9841C231.977 46.361 232.684 49.2774 234.096 51.7333C235.508 54.1893 237.411 56.0926 239.806 57.4434C242.262 58.7941 244.994 59.4695 248.002 59.4695C251.134 59.4695 253.866 58.7941 256.199 57.4434C258.594 56.0926 260.466 54.1893 261.817 51.7333C263.229 49.2774 263.935 46.3917 263.935 43.0762V2.92188H272.684V43.2604C272.684 47.9881 271.61 52.1938 269.461 55.8777C267.312 59.5616 264.396 62.478 260.712 64.6269C257.028 66.7145 252.791 67.7582 248.002 67.7582Z" fill="#CFE2FA"/>
<path d="M188.747 67.7573C183.712 67.7573 179.414 66.8364 175.853 64.9944C172.292 63.1525 169.13 60.4817 166.367 56.982L172.261 51.0878C174.288 53.9121 176.621 56.061 179.261 57.5346C181.901 58.9467 185.155 59.6528 189.023 59.6528C192.83 59.6528 195.869 58.8239 198.141 57.1662C200.474 55.5084 201.64 53.2367 201.64 50.351C201.64 47.9565 201.088 46.0224 199.983 44.5489C198.877 43.0753 197.373 41.878 195.47 40.9571C193.628 39.9747 191.602 39.1151 189.391 38.3784C187.181 37.5802 184.971 36.7513 182.76 35.8917C180.55 34.9708 178.524 33.8656 176.682 32.5762C174.84 31.2255 173.336 29.4756 172.169 27.3267C171.064 25.1778 170.512 22.4763 170.512 19.2222C170.512 15.5997 171.371 12.5298 173.09 10.0124C174.871 7.43373 177.265 5.46899 180.274 4.11823C183.344 2.70608 186.782 2 190.589 2C194.764 2 198.509 2.82887 201.825 4.48662C205.14 6.08297 207.842 8.20121 209.929 10.8413L204.035 16.7355C202.132 14.5252 200.075 12.8675 197.864 11.7623C195.715 10.6571 193.229 10.1045 190.405 10.1045C186.966 10.1045 184.234 10.872 182.208 12.407C180.182 13.8805 179.169 15.9681 179.169 18.6696C179.169 20.8185 179.721 22.5684 180.826 23.9191C181.993 25.2085 183.497 26.3136 185.339 27.2346C187.181 28.1556 189.207 29.0152 191.418 29.8133C193.689 30.5501 195.93 31.379 198.141 32.2999C200.351 33.2209 202.377 34.3875 204.219 35.7996C206.061 37.2118 207.535 39.0537 208.64 41.3255C209.806 43.5358 210.39 46.3294 210.39 49.7063C210.39 55.3549 208.425 59.7756 204.495 62.9683C200.627 66.161 195.378 67.7573 188.747 67.7573Z" fill="#CFE2FA"/>
<path d="M133.391 66.8373V4.76382H142.048V66.8373H133.391ZM111.656 10.8422V2.92188H163.691V10.8422H111.656Z" fill="#CFE2FA"/>
<path d="M56.0547 66.8373L82.2103 2.92188H88.4729L114.536 66.8373H105.142L83.6838 12.7763H86.9072L65.2644 66.8373H56.0547ZM68.4878 52.378V44.8261H102.103V52.378H68.4878Z" fill="#CFE2FA"/>
<path d="M41.5097 66.8373L9.27567 33.4981L40.865 2.92188H52.1008L18.0249 35.7084V30.9194L53.0218 66.8373H41.5097ZM2 66.8373V2.92188H10.6571V66.8373H2Z" fill="#CFE2FA"/>
<path d="M1409.3 2.375V33.4867L1383.75 2.375H1335.09L1309.54 33.5447V2.375H1294.7V67.3794H1309.65V38.2954L1336.81 67.3215L1352.86 67.2056V67.3215H1365.81V67.2056L1382.08 67.3215L1409.25 38.2954V67.3794H1424.14V2.375H1409.25H1409.3ZM1323.7 36.2097L1343.7 14.136H1352.81V66.4524L1323.65 36.2097H1323.7ZM1365.81 66.6842V14.136H1375.2L1395.19 36.2097L1365.81 66.6842Z" fill="#CFE2FA"/>
</g>
<defs>
<filter id="filter0_f_3457_9068" x="0" y="-0.121094" width="1426.14" height="70" filterUnits="userSpaceOnUse" color-interpolation-filters="sRGB">
<feFlood flood-opacity="0" result="BackgroundImageFix"/>
<feBlend mode="normal" in="SourceGraphic" in2="BackgroundImageFix" result="shape"/>
<feGaussianBlur stdDeviation="1" result="effect1_foregroundBlur_3457_9068"/>
</filter>
</defs>
</svg>
